<?xml version="1.0" standalone="no"?>
<!DOCTYPE svg PUBLIC "-//W3C//DTD SVG 20010904//EN"
 "http://www.w3.org/TR/2001/REC-SVG-20010904/DTD/svg10.dtd">
<svg version="1.0" xmlns="http://www.w3.org/2000/svg"
 width="512.000000pt" height="512.000000pt" viewBox="0 0 512.000000 512.000000"
 preserveAspectRatio="xMidYMid meet">
<metadata>
Created by potrace 1.14, written by Peter Selinger 2001-2017
</metadata>
<g transform="translate(0.000000,512.000000) scale(0.100000,-0.100000)"
fill="#000000" stroke="none">
<path d="M4333 5106 c-6 -8 -9 -17 -5 -20 3 -4 -2 -4 -13 0 -15 6 -17 4 -12
-10 4 -10 2 -16 -6 -15 -40 5 -50 -20 -22 -57 14 -19 14 -18 15 4 0 12 4 22
10 22 6 0 6 -9 0 -25 -5 -14 -7 -25 -4 -25 3 0 -7 -11 -22 -25 -28 -26 -46
-27 -24 -1 10 13 9 18 -3 31 -9 8 -19 15 -23 15 -5 0 -3 -5 4 -12 17 -17 15
-38 -3 -38 -18 0 -20 -17 -2 -23 6 -2 -7 -13 -29 -25 -23 -12 -45 -18 -49 -14
-5 4 -5 -1 -2 -11 5 -14 2 -16 -19 -11 -23 6 -25 4 -20 -13 5 -14 1 -22 -11
-27 -33 -12 -61 -32 -94 -66 -27 -29 -34 -32 -37 -17 -2 9 -5 17 -8 17 -10 0
-42 -39 -36 -44 3 -3 -6 -6 -21 -6 -28 0 -45 -15 -25 -23 8 -4 9 -6 2 -6 -6
-1 -17 6 -24 14 -13 16 -45 21 -36 6 3 -5 -1 -14 -9 -21 -8 -7 -12 -16 -9 -22
11 -18 -25 -55 -70 -72 -25 -10 -43 -22 -41 -29 3 -7 -11 -23 -31 -37 -36 -26
-134 -99 -168 -125 -14 -11 -23 -12 -33 -4 -9 8 -13 8 -13 1 0 -6 5 -12 12
-14 20 -7 -3 -30 -24 -25 -14 4 -18 2 -14 -9 3 -8 2 -14 -3 -14 -8 0 -125 -86
-171 -126 -61 -53 -119 -100 -140 -114 -12 -8 -30 -23 -40 -33 -10 -10 -24
-15 -34 -11 -12 5 -15 2 -10 -10 5 -12 0 -19 -15 -23 -11 -3 -21 -9 -21 -14 0
-5 -7 -9 -15 -9 -8 0 -15 -7 -15 -15 0 -8 -6 -15 -14 -15 -7 0 -27 -13 -44
-30 -18 -16 -36 -30 -42 -30 -5 0 -19 -9 -30 -20 -11 -11 -17 -20 -13 -20 3 0
-11 -16 -33 -35 -30 -26 -35 -34 -21 -35 20 0 39 8 172 69 44 21 92 43 108 49
22 9 27 18 27 46 0 40 12 52 30 31 14 -17 61 -20 88 -6 9 5 34 17 54 27 20 10
50 30 65 44 55 51 82 63 150 66 71 3 113 25 92 50 -7 8 -7 14 1 19 8 5 6 12
-5 25 -14 16 -14 18 1 31 14 11 18 11 30 -6 8 -10 14 -31 14 -46 0 -35 13 -44
42 -26 13 8 44 22 71 32 33 13 47 23 47 36 0 11 9 28 19 38 16 16 24 17 58 8
22 -6 47 -7 56 -4 14 5 15 10 5 33 -10 22 -10 27 6 36 13 7 16 17 11 39 -5 21
-1 37 14 58 11 15 18 31 16 35 -3 3 -3 4 0 2 9 -6 70 58 67 71 -1 6 2 14 8 18
5 3 10 -1 10 -10 0 -9 5 -13 11 -10 5 4 8 12 6 18 -2 7 20 31 49 55 29 24 55
50 58 58 3 7 12 14 21 14 8 0 15 4 15 8 0 4 26 23 58 42 31 19 96 65 143 102
83 65 134 98 152 98 5 0 33 -24 63 -54 38 -38 54 -61 54 -80 0 -20 8 -30 35
-43 33 -16 36 -16 53 1 16 16 14 19 -33 64 -27 26 -63 57 -79 70 -18 14 -26
27 -22 38 8 22 43 9 74 -27 27 -33 48 -37 55 -11 3 10 5 7 6 -10 0 -15 15 -43
33 -63 35 -41 32 -47 -32 -82 -62 -34 -140 -85 -140 -92 0 -3 -29 -22 -65 -41
-117 -62 -128 -69 -152 -89 -13 -12 -28 -21 -34 -21 -35 0 -277 -135 -264
-148 2 -3 10 -1 17 5 7 5 39 18 71 28 31 11 57 23 57 27 0 4 10 8 23 8 12 0
42 10 67 21 25 11 76 31 113 44 61 22 72 23 100 11 18 -7 38 -20 46 -29 7 -10
18 -17 23 -17 5 0 16 -7 24 -15 8 -8 25 -21 36 -30 27 -18 15 -34 -12 -17 -27
16 -46 16 -32 -1 7 -8 6 -29 -5 -67 -16 -62 -22 -256 -9 -340 12 -80 13 -99
25 -280 6 -91 16 -199 21 -240 5 -41 11 -131 15 -200 3 -69 10 -173 16 -231 6
-59 9 -113 6 -120 -10 -29 -29 48 -32 130 -1 46 -7 86 -13 90 -5 3 -10 29 -10
56 -1 28 -3 81 -6 120 -3 43 -1 72 5 76 7 4 4 9 -5 12 -11 4 -16 1 -17 -11 -2
-20 -5 -50 -7 -74 -1 -9 -11 -20 -22 -23 -14 -5 -20 -16 -21 -38 0 -18 -7 -48
-15 -67 -14 -34 -14 -34 -10 -5 2 17 0 39 -4 50 -5 11 -9 14 -9 8 -1 -7 -5
-13 -10 -13 -11 0 4 79 18 93 6 6 14 8 18 4 4 -4 1 -13 -5 -19 -14 -14 -16
-48 -3 -48 5 0 12 12 16 27 3 15 10 30 14 33 5 3 10 26 13 53 4 36 2 47 -8 47
-8 0 -14 5 -14 10 0 6 -4 10 -10 10 -5 0 -10 -9 -10 -19 0 -11 5 -23 10 -26
17 -10 11 -32 -10 -38 -19 -5 -20 0 -20 65 0 43 -4 67 -10 63 -5 -3 -10 -24
-10 -46 0 -24 -4 -38 -10 -34 -14 9 -13 115 1 115 8 0 8 4 0 14 -8 9 -8 16 -2
20 6 4 7 14 4 22 -5 12 -7 13 -14 3 -12 -20 -18 -9 -22 41 -3 25 -8 52 -11 61
-4 8 -2 28 4 43 13 34 13 39 0 31 -13 -8 -13 17 1 52 14 33 12 90 -5 173 -8
35 -7 34 16 -10 29 -55 53 -67 43 -21 -4 18 -3 31 3 31 15 0 28 -56 39 -170 2
-30 8 -59 12 -63 17 -18 -7 203 -28 256 -6 16 -8 33 -5 38 3 6 0 16 -6 24 -7
8 -10 26 -7 41 3 18 1 24 -9 20 -8 -3 -14 -2 -14 3 0 4 -11 13 -25 19 -20 9
-25 9 -25 -2 0 -8 -9 -16 -20 -19 -19 -5 -27 -33 -21 -77 7 -64 13 -129 13
-148 0 -15 5 -21 16 -20 8 2 17 -3 19 -10 3 -8 -1 -10 -12 -6 -14 6 -15 -3
-10 -87 4 -52 6 -122 5 -155 -1 -44 4 -66 15 -77 17 -17 20 -31 5 -22 -6 4
-10 -9 -11 -32 l-1 -38 -9 40 c-16 70 -39 295 -49 465 -5 91 -14 181 -20 200
-15 51 -13 100 5 106 8 4 15 12 15 19 0 6 9 20 20 30 11 10 20 24 20 32 0 7 5
13 11 13 7 0 8 -11 4 -29 -4 -17 -2 -32 5 -36 7 -4 9 9 6 41 -3 35 0 55 13 74
21 30 36 57 29 50 -10 -9 -75 -96 -79 -106 -15 -34 -76 -114 -89 -114 -43 -1
-320 -102 -615 -225 -16 -6 -46 -18 -65 -24 -19 -7 -46 -19 -60 -26 -14 -7
-50 -20 -80 -30 -30 -10 -83 -31 -118 -46 -34 -16 -65 -29 -67 -29 -2 0 -29
-11 -59 -25 -30 -14 -60 -25 -66 -25 -6 0 -40 -16 -76 -35 -35 -19 -71 -35
-79 -35 -8 0 -15 -4 -15 -10 0 -5 -5 -10 -11 -10 -9 0 -67 -23 -174 -70 -11
-5 -60 -25 -110 -45 -49 -21 -115 -49 -145 -63 -30 -14 -62 -24 -70 -23 -12 1
-13 0 -1 -7 7 -6 11 -14 7 -20 -17 -27 168 17 202 49 12 10 28 19 36 19 8 0
21 8 28 18 7 9 24 18 38 19 37 2 172 33 192 44 31 17 211 23 278 10 43 -9 66
-9 73 -2 7 7 14 6 21 -3 10 -12 95 -39 169 -53 27 -5 28 -5 25 38 -2 33 1 44
12 44 11 0 13 -12 11 -53 -2 -43 1 -53 16 -58 10 -4 60 -26 111 -50 51 -24 96
-44 100 -44 21 0 94 -43 138 -82 27 -24 68 -58 91 -76 23 -18 45 -43 49 -55 4
-12 15 -28 26 -35 10 -7 16 -17 13 -22 -3 -5 -1 -19 5 -30 7 -13 7 -20 0 -20
-11 0 -9 -28 3 -47 5 -7 6 -17 3 -22 -3 -5 4 -11 15 -14 12 -3 18 -10 14 -16
-3 -6 -2 -11 4 -11 5 0 9 -19 7 -42 -1 -24 1 -48 6 -54 5 -7 10 -35 11 -63 1
-30 7 -53 15 -56 14 -5 17 -35 3 -35 -5 0 -12 7 -15 16 -3 8 -10 13 -15 10
-15 -10 19 -66 67 -113 25 -24 43 -43 39 -43 -4 0 2 -22 13 -49 10 -27 16 -52
13 -55 -4 -3 0 -17 7 -31 11 -20 10 -28 -4 -49 -17 -26 -21 -62 -8 -68 11 -5
50 -89 57 -123 11 -56 10 -60 -10 -61 -37 -2 -39 -4 -19 -18 11 -8 33 -16 48
-18 22 -2 31 -10 40 -38 10 -30 15 -35 41 -33 17 1 24 0 18 -3 -23 -10 -14
-26 12 -22 14 3 25 3 25 1 0 -9 -29 -33 -39 -33 -6 0 -11 -7 -11 -16 0 -8 -5
-12 -11 -9 -6 4 -8 13 -5 21 7 17 -10 19 -20 2 -4 -6 -2 -14 4 -16 20 -6 14
-42 -6 -42 -28 0 -63 -35 -56 -54 7 -19 -11 -22 -20 -3 -3 6 -4 0 -2 -16 3
-29 -11 -48 -23 -29 -5 8 -18 9 -45 1 -21 -6 -40 -8 -44 -5 -3 3 -13 -1 -22
-9 -16 -14 -20 -13 -48 17 -34 33 -51 33 -33 0 8 -15 8 -22 -2 -25 -8 -4 -4
-12 13 -26 15 -12 19 -21 11 -21 -11 0 -11 -3 -1 -15 8 -9 8 -15 2 -15 -6 0
-13 6 -16 13 -5 10 -7 10 -12 0 -6 -14 -34 -18 -34 -5 0 4 -9 13 -20 20 -17
10 -24 10 -40 -1 -11 -8 -17 -17 -13 -21 4 -4 -1 -4 -12 0 -11 5 -28 17 -37
29 -14 16 -19 17 -27 6 -6 -10 -12 -6 -22 17 -20 46 -30 28 -14 -25 15 -50 11
-68 -8 -43 -7 8 -19 16 -27 18 -8 2 -21 11 -28 20 -7 9 -19 25 -26 34 -8 9
-26 37 -39 61 l-25 45 24 50 c13 28 26 66 29 86 2 20 8 42 12 49 4 6 6 20 5
29 -2 12 2 16 11 12 8 -3 17 2 20 10 4 9 1 16 -5 16 -6 0 -8 11 -5 30 4 16 2
32 -3 35 -7 4 -6 13 0 25 6 11 10 23 9 27 -4 26 3 31 37 26 l35 -6 -35 37
c-20 20 -36 39 -36 42 0 3 14 3 30 -1 40 -9 39 8 -5 56 -36 41 -49 73 -18 48
15 -13 15 -12 5 8 -8 14 -18 20 -31 16 -12 -3 -26 3 -37 16 -10 12 -24 21 -30
21 -7 0 -14 7 -18 15 -10 28 -24 15 -30 -30 -8 -47 -14 -53 -34 -33 -9 9 -12
7 -12 -11 0 -16 4 -21 15 -17 8 3 27 -5 42 -18 l28 -24 -26 5 c-22 4 -27 0
-33 -20 -3 -14 -2 -37 4 -52 16 -42 12 -47 -21 -23 -26 19 -31 20 -40 8 -8
-13 -10 -13 -18 0 -25 38 -22 -21 5 -117 4 -14 2 -23 -4 -23 -6 0 -13 8 -15
17 -3 13 -5 11 -7 -7 -1 -22 -2 -23 -9 -6 -9 25 -41 30 -41 8 0 -10 4 -32 9
-50 12 -40 5 -40 -28 -3 -17 19 -39 31 -63 34 -42 6 -46 -2 -25 -43 18 -34 28
-88 18 -94 -11 -7 -51 22 -51 37 0 7 -32 41 -71 76 -52 47 -67 66 -57 72 7 5
9 9 3 9 -5 0 -16 -4 -23 -9 -11 -6 -8 -13 12 -29 29 -22 34 -37 10 -28 -15 6
-15 4 -3 -11 8 -10 29 -33 47 -51 33 -33 57 -80 48 -90 -8 -7 -112 81 -185
157 -35 36 -60 59 -54 51 5 -8 15 -34 23 -57 7 -23 33 -65 58 -93 39 -45 42
-51 21 -45 -13 4 -28 14 -32 21 -29 49 -112 91 -87 43 6 -11 9 -28 7 -37 -3
-12 -5 -11 -6 6 0 12 -5 22 -11 22 -5 0 -10 7 -10 15 0 18 -33 84 -42 85 -4 0
-5 -7 -2 -15 10 -24 -29 -18 -62 10 -32 28 -48 17 -33 -23 5 -14 8 -27 5 -29
-4 -5 -42 42 -49 60 -2 7 -8 9 -12 5 -4 -4 0 -19 9 -33 13 -20 15 -30 6 -40
-9 -11 -19 -9 -56 13 -24 15 -44 32 -44 38 0 6 -6 17 -14 23 -23 19 -8 -24 18
-52 31 -34 56 -74 56 -91 0 -26 -26 -7 -38 28 -7 19 -19 37 -28 40 -12 4 -12
2 -4 -14 14 -27 12 -32 -9 -21 -10 6 -22 7 -25 3 -4 -4 -12 1 -17 11 -6 9 -19
17 -31 17 -14 0 -18 5 -14 16 3 8 2 13 -3 10 -5 -3 -20 6 -32 20 -46 50 -63
64 -76 64 -22 0 -14 -14 22 -40 37 -26 81 -102 70 -120 -8 -12 -67 -13 -81 -1
-5 4 -24 11 -43 15 -28 5 -32 4 -22 -8 6 -8 25 -19 41 -26 17 -7 30 -18 30
-26 0 -18 34 -35 54 -28 12 5 16 0 16 -20 0 -31 -13 -33 -43 -5 -32 31 -58 46
-92 53 -28 6 -29 5 -11 -9 11 -8 27 -15 37 -15 21 0 34 -17 43 -55 l7 -30 -26
28 c-42 44 -115 64 -115 32 0 -8 -4 -15 -10 -15 -5 0 -10 5 -10 10 0 6 -9 10
-20 10 -13 0 -18 5 -14 15 11 26 -13 16 -57 -25 -50 -47 -92 -58 -134 -36
l-29 15 42 7 c23 4 42 11 42 16 0 9 -109 1 -170 -12 l-35 -8 32 -1 c39 -1 46
-11 33 -45 -9 -25 -8 -26 23 -26 l32 -1 -40 -18 c-29 -13 -41 -14 -43 -6 -2 7
-25 16 -52 19 -60 8 -67 27 -9 23 50 -4 57 5 23 32 -20 15 -41 21 -80 21 -30
0 -54 -4 -54 -10 0 -11 -1 -11 57 -14 57 -3 63 -12 13 -20 -54 -8 -56 -36 -2
-36 47 -1 25 -15 -38 -24 -24 -4 -52 -14 -62 -23 -10 -9 -21 -13 -25 -9 -4 4
-1 11 7 16 10 7 -1 10 -37 10 -43 0 -51 -3 -47 -15 8 -19 -16 -20 -42 0 -21
16 -48 20 -39 6 11 -18 -17 -23 -33 -7 -16 16 -16 17 1 10 13 -5 17 -1 17 19
0 14 -7 28 -16 31 -24 9 -26 8 -19 -14 5 -14 2 -20 -9 -20 -9 0 -16 7 -16 16
0 22 27 46 47 42 21 -3 43 9 43 24 0 7 -5 6 -14 -1 -11 -9 -25 -9 -55 -1 -31
8 -45 8 -60 -2 -16 -10 -23 -10 -33 0 -9 9 -7 12 12 12 53 0 7 11 -80 19 -60
6 -104 5 -123 -1 -20 -7 -40 -7 -65 0 -50 15 -122 22 -122 12 0 -4 17 -11 38
-15 34 -7 35 -8 14 -16 -13 -5 -36 -6 -50 -3 -21 4 -24 3 -12 -5 8 -6 23 -11
33 -11 19 0 23 -26 5 -33 -7 -2 -1 -2 15 0 35 6 35 -10 0 -27 -17 -8 -23 -14
-15 -17 7 -3 22 3 32 12 17 15 31 17 92 11 40 -4 77 -11 82 -16 14 -14 -40
-13 -79 2 -27 9 -36 8 -56 -6 l-24 -18 34 5 c24 3 39 -1 53 -15 23 -23 23 -28
1 -28 -15 0 -16 -2 -3 -10 22 -14 30 -12 30 8 0 13 2 14 9 3 5 -8 32 -14 67
-16 36 -2 62 -9 69 -18 6 -8 19 -16 29 -18 35 -7 31 -30 -5 -27 -18 2 -34 -2
-36 -9 -3 -7 3 -13 12 -13 9 0 13 -5 10 -11 -4 -6 -41 -9 -98 -6 l-92 4 -2
-24 c-2 -34 -25 -56 -61 -57 -17 -1 -30 -5 -29 -11 1 -5 -20 -14 -48 -20 -27
-5 -55 -13 -62 -18 -15 -10 -63 12 -63 30 0 9 -16 13 -52 15 -29 0 -66 3 -83
6 -16 2 -52 3 -79 3 -27 -1 -55 4 -62 10 -11 9 -14 8 -14 -1 0 -7 -8 -10 -20
-7 -11 3 -20 1 -20 -4 0 -5 5 -9 10 -9 6 0 10 -7 10 -15 0 -21 -8 -19 -47 11
-53 40 -102 151 -74 169 6 3 9 22 7 43 -1 20 4 51 11 69 17 43 18 42 -26 36
-25 -4 -41 -1 -46 7 -6 10 -2 12 16 7 l24 -6 -22 18 c-16 13 -20 25 -16 41 4
17 3 21 -6 16 -6 -4 -18 -2 -26 4 -21 18 -31 6 -51 -60 -10 -33 -21 -60 -26
-60 -4 0 -8 -7 -8 -15 0 -8 5 -15 10 -15 6 0 10 -7 10 -15 0 -9 8 -18 18 -22
26 -9 51 -45 52 -73 1 -14 14 -52 29 -85 32 -66 31 -88 -3 -56 -23 22 -46 28
-46 12 0 -6 5 -13 10 -16 6 -3 10 -21 9 -38 0 -18 -3 -26 -6 -19 -8 21 -20 13
-21 -15 -1 -56 -12 -178 -29 -321 -9 -81 -17 -174 -17 -207 -1 -68 -9 -85 -37
-85 -15 0 -19 -7 -20 -32 -1 -18 -1 -37 0 -42 1 -5 -3 -33 -9 -63 -7 -30 -14
-93 -16 -141 -7 -129 -8 -135 -23 -140 -11 -4 -12 9 -6 74 4 44 7 100 6 127
-1 31 3 47 11 47 9 0 9 3 0 12 -26 26 -34 -4 -41 -151 -1 -13 -4 -21 -8 -17
-4 4 -13 -21 -20 -56 -9 -45 -10 -64 -2 -69 7 -4 8 -12 3 -20 -10 -16 -13 -37
-17 -144 -2 -44 -7 -98 -11 -119 -6 -27 -5 -37 2 -32 18 11 25 -14 9 -32 -13
-14 -37 -115 -37 -154 0 -5 41 -8 90 -8 l90 0 0 76 c0 83 11 114 40 114 22 0
25 -16 11 -70 -5 -19 -12 -54 -15 -77 l-6 -43 61 0 c61 0 62 0 45 19 -27 30
-13 91 35 148 32 39 39 55 39 91 0 32 6 49 25 67 27 28 45 32 45 10 0 -8 5
-15 11 -15 8 0 7 -5 -1 -15 -7 -9 -21 -13 -30 -10 -15 5 -18 -4 -24 -55 -5
-39 -12 -63 -22 -67 -8 -3 -14 -11 -14 -19 0 -8 -8 -14 -19 -14 -23 0 -33 -33
-16 -57 7 -9 10 -23 7 -31 -4 -12 -1 -12 15 -3 17 8 22 7 27 -5 3 -8 11 -12
17 -8 7 4 10 1 7 -7 -3 -8 -16 -14 -31 -14 -14 -1 -29 -4 -33 -8 -4 -3 245 -6
553 -7 l560 0 7 31 c3 17 6 51 6 75 0 23 5 46 11 50 12 7 89 -24 89 -36 0 -4
-16 -11 -35 -14 -19 -4 -35 -11 -35 -16 0 -4 -3 -16 -7 -25 -5 -14 -2 -16 18
-10 18 5 20 4 9 -4 -22 -15 -7 -22 54 -24 38 -1 56 -5 56 -14 0 -11 293 -13
1575 -13 l1575 0 0 2481 c0 2471 0 2480 -20 2474 -36 -11 -112 -57 -117 -71
-3 -8 -9 -12 -13 -9 -5 3 -32 -8 -60 -25 -28 -16 -55 -30 -59 -30 -5 0 -14 -7
-21 -15 -7 -8 -18 -15 -24 -15 -6 0 1 11 16 24 l27 24 -51 46 c-28 25 -58 46
-66 46 -9 0 -12 3 -9 7 4 3 2 12 -4 19 -14 17 -8 25 38 48 21 10 45 22 53 26
15 7 71 21 87 22 5 0 16 4 25 9 29 16 160 29 180 18 15 -8 18 -6 18 16 l0 26
-115 -2 c-63 -1 -115 -6 -115 -10 0 -5 -15 -9 -32 -10 -29 0 -30 -2 -13 -10
17 -8 17 -9 -5 -4 -14 2 -32 5 -40 5 -11 1 -10 4 5 16 18 13 1 15 -168 14
-131 -1 -187 -5 -187 -13 0 -8 -4 -7 -12 1 -16 16 -90 15 -105 -2z m7 -66 c0
-5 -7 -7 -15 -4 -8 4 -15 8 -15 10 0 2 7 4 15 4 8 0 15 -4 15 -10z m-620 -480
c0 -5 -4 -10 -10 -10 -5 0 -10 5 -10 10 0 6 5 10 10 10 6 0 10 -4 10 -10z
m1013 -220 c5 0 5 -6 -1 -13 -7 -8 -7 -18 -2 -27 8 -12 10 -12 10 3 0 10 5 15
10 12 6 -4 9 -28 8 -55 -2 -26 -6 -46 -10 -43 -5 2 -8 10 -8 18 0 7 -7 15 -15
19 -9 3 -15 19 -15 41 0 20 -7 43 -15 51 -24 24 -17 37 7 14 12 -11 26 -20 31
-20z m-83 0 c0 -5 -4 -10 -10 -10 -5 0 -10 5 -10 10 0 6 5 10 10 10 6 0 10 -4
10 -10z m0 -40 c0 -5 -4 -10 -10 -10 -5 0 -10 5 -10 10 0 6 5 10 10 10 6 0 10
-4 10 -10z m-30 -144 c-6 -31 -16 -54 -21 -51 -5 4 -5 13 1 23 5 9 12 34 15
56 4 21 9 36 12 33 2 -3 0 -31 -7 -61z m-1170 -10 c0 -7 -9 -16 -20 -19 -23
-6 -26 3 -8 21 16 16 28 15 28 -2z m1020 -41 c0 -8 -4 -15 -10 -15 -5 0 -10 7
-10 15 0 8 5 15 10 15 6 0 10 -7 10 -15z m20 -62 c0 -20 -24 -11 -28 10 -2 12
1 15 12 11 9 -3 16 -13 16 -21z m160 1 c0 -8 -4 -14 -10 -14 -5 0 -10 9 -10
21 0 11 5 17 10 14 6 -3 10 -13 10 -21z m-243 -6 c-3 -8 -6 -5 -6 6 -1 11 2
17 5 13 3 -3 4 -12 1 -19z m210 -70 c-3 -8 -6 -5 -6 6 -1 11 2 17 5 13 3 -3 4
-12 1 -19z m23 -119 c0 -16 -4 -29 -10 -29 -5 0 -10 16 -10 36 0 21 4 33 10
29 6 -3 10 -19 10 -36z m7 -116 c-3 -10 -5 -2 -5 17 0 19 2 27 5 18 2 -10 2
-26 0 -35z m52 -355 l-2 -93 -8 75 c-7 69 -4 110 7 110 2 0 3 -42 3 -92z
m-210 -62 c-13 -15 -18 -4 -11 29 6 30 6 30 12 5 4 -14 3 -29 -1 -34z m-12
-68 c-3 -8 -6 -5 -6 6 -1 11 2 17 5 13 3 -3 4 -12 1 -19z m122 -30 c0 -28 -2
-30 -9 -13 -12 28 -12 45 0 45 6 0 10 -15 9 -32z m-139 -10 c0 -14 5 -18 15
-14 9 3 15 0 15 -8 0 -22 -11 -25 -31 -8 -19 17 -28 68 -9 57 6 -3 10 -15 10
-27z m95 -103 l-14 -50 6 50 c6 51 14 77 20 60 1 -6 -4 -32 -12 -60z m-80
-140 c1 -91 -3 -159 -7 -152 -5 6 -8 73 -7 147 0 74 -2 149 -6 165 -6 25 -5
28 6 17 11 -10 14 -51 14 -177z m45 148 c-1 -24 -2 -26 -11 -10 -5 9 -7 22 -4
27 10 17 15 11 15 -17z m0 -175 c0 -16 -3 -19 -11 -11 -6 6 -8 16 -5 22 11 17
16 13 16 -11z m170 -131 c0 -34 6 -105 14 -157 8 -52 17 -138 21 -190 3 -52 9
-105 12 -117 9 -37 -12 -26 -26 13 -14 38 -31 136 -37 214 -6 76 -10 274 -6
292 9 37 22 4 22 -55z m-40 -11 c0 -3 -4 -8 -10 -11 -5 -3 -10 -1 -10 4 0 6 5
11 10 11 6 0 10 -2 10 -4z m-173 -98 c-3 -8 -6 -5 -6 6 -1 11 2 17 5 13 3 -3
4 -12 1 -19z m73 -94 c0 -2 -9 -4 -21 -4 -11 0 -18 4 -14 10 5 8 35 3 35 -6z
m97 -76 c-3 -8 -6 -5 -6 6 -1 11 2 17 5 13 3 -3 4 -12 1 -19z m-73 -64 c9 -24
7 -28 -9 -14 -17 14 -20 30 -6 30 5 0 12 -7 15 -16z m-814 -61 c0 -13 -3 -13
-15 -3 -8 7 -15 19 -15 27 0 13 3 13 15 3 8 -7 15 -19 15 -27z m903 -25 c-7
-17 -9 -14 -9 16 0 27 2 32 9 20 5 -10 5 -24 0 -36z m-33 -29 c0 -6 -4 -7 -10
-4 -5 3 -10 11 -10 16 0 6 5 7 10 4 6 -3 10 -11 10 -16z m84 -40 c17 -35 30
-76 30 -99 0 -22 4 -40 8 -40 4 0 8 -16 8 -35 0 -31 -2 -34 -27 -30 -38 5 -63
15 -63 26 0 5 -8 9 -17 10 -12 0 -13 2 -5 6 10 4 9 9 -4 24 -28 31 0 21 31
-11 15 -16 32 -27 38 -23 5 3 13 -1 18 -8 16 -26 19 -2 3 29 -8 17 -18 48 -21
69 -3 21 -14 56 -24 77 -11 22 -19 46 -19 53 0 27 16 10 44 -48z m-1020 25 c4
-10 1 -14 -6 -12 -15 5 -23 28 -10 28 5 0 13 -7 16 -16z m954 -40 c-4 -3 -12
5 -18 18 -12 22 -12 22 6 6 10 -10 15 -20 12 -24z m-108 -8 c0 -14 4 -28 10
-31 10 -6 -8 -45 -21 -45 -4 0 -7 23 -7 50 0 28 4 50 9 50 5 0 9 -11 9 -24z
m237 2 c-3 -8 -6 -5 -6 6 -1 11 2 17 5 13 3 -3 4 -12 1 -19z m-197 2 c0 -5 -7
-10 -15 -10 -8 0 -15 5 -15 10 0 6 7 10 15 10 8 0 15 -4 15 -10z m-1086 -82
c23 -23 48 -68 39 -68 -5 0 -21 18 -36 40 -26 40 -27 52 -3 28z m1020 -14 c3
-8 2 -12 -4 -9 -6 3 -10 10 -10 16 0 14 7 11 14 -7z m184 -9 c17 -38 14 -43
-8 -15 -21 27 -25 40 -12 40 5 0 14 -11 20 -25z m-1688 -83 c0 -16 -24 -10
-26 6 -1 7 -2 16 -3 21 0 5 -8 17 -17 25 -8 9 -12 21 -8 27 7 13 54 -56 54
-79z m38 57 c-3 -8 -7 -3 -11 10 -4 17 -3 21 5 13 5 -5 8 -16 6 -23z m32 21
c0 -5 -2 -10 -4 -10 -3 0 -8 5 -11 10 -3 6 -1 10 4 10 6 0 11 -4 11 -10z
m1495 -20 c3 -5 -1 -10 -9 -10 -9 0 -16 5 -16 10 0 6 4 10 9 10 6 0 13 -4 16
-10z m-921 -16 c3 -8 2 -12 -4 -9 -6 3 -10 10 -10 16 0 14 7 11 14 -7z m836
-4 c0 -5 -2 -10 -4 -10 -3 0 -8 5 -11 10 -3 6 -1 10 4 10 6 0 11 -4 11 -10z
m141 -10 c17 -13 19 -19 9 -19 -16 0 -50 22 -50 33 0 12 18 6 41 -14z m-1807
-6 c9 -8 16 -25 16 -37 0 -19 -3 -17 -20 11 -28 45 -26 57 4 26z m239 -9 c-7
-21 -13 -19 -13 6 0 11 4 18 10 14 5 -3 7 -12 3 -20z m227 5 c0 -5 -2 -10 -4
-10 -3 0 -8 5 -11 10 -3 6 -1 10 4 10 6 0 11 -4 11 -10z m-596 -26 c5 -14 4
-15 -9 -4 -17 14 -19 20 -6 20 5 0 12 -7 15 -16z m1996 -5 c0 -4 -7 -6 -15 -3
-8 4 -15 10 -15 15 0 4 7 6 15 3 8 -4 15 -10 15 -15z m-97 -5 c13 -5 13 -8 -4
-25 -10 -10 -25 -19 -31 -18 -10 0 -10 2 0 6 6 2 12 13 12 24 0 21 1 22 23 13z
m217 -15 c0 -4 -7 -6 -15 -3 -8 4 -15 10 -15 15 0 4 7 6 15 3 8 -4 15 -10 15
-15z m-2055 -19 c3 -5 1 -10 -4 -10 -6 0 -11 5 -11 10 0 6 2 10 4 10 3 0 8 -4
11 -10z m365 -71 c0 -10 -3 -19 -7 -19 -15 0 -30 15 -30 30 0 8 -3 26 -7 40
l-7 25 25 -28 c14 -15 26 -37 26 -48z m-393 29 c-3 -8 -6 -5 -6 6 -1 11 2 17
5 13 3 -3 4 -12 1 -19z m330 6 c2 -7 -6 -10 -22 -7 -14 3 -25 10 -25 15 0 13
43 6 47 -8z m-587 -15 c0 -5 -4 -9 -8 -9 -5 0 -9 7 -9 15 0 8 4 12 9 9 4 -3 8
-9 8 -15z m490 11 c0 -5 -5 -10 -11 -10 -5 0 -7 5 -4 10 3 6 8 10 11 10 2 0 4
-4 4 -10z m-540 -4 c0 -3 -4 -8 -10 -11 -5 -3 -10 -1 -10 4 0 6 5 11 10 11 6
0 10 -2 10 -4z m438 -15 c3 -8 -1 -12 -9 -9 -7 2 -15 10 -17 17 -3 8 1 12 9 9
7 -2 15 -10 17 -17z m38 4 c4 -8 21 -22 40 -31 19 -9 34 -23 34 -30 0 -18 -14
-18 -30 1 -7 8 -19 15 -26 15 -8 0 -14 5 -14 12 0 6 -7 20 -17 30 -10 11 -12
18 -4 18 6 0 14 -7 17 -15z m133 -25 c19 -16 21 -23 11 -35 -10 -12 -10 -18
-1 -29 18 -21 -5 -31 -25 -11 -15 15 -15 17 1 35 17 18 13 40 -6 40 -6 0 -7
-9 -4 -20 9 -28 -7 -25 -34 6 -17 20 -20 29 -11 40 13 15 27 10 69 -26z m1488
34 c-3 -3 -12 -4 -19 -1 -8 3 -5 6 6 6 11 1 17 -2 13 -5z m-3140 -21 c-9 -9
-19 -14 -23 -11 -10 10 6 28 24 28 15 0 15 -1 -1 -17z m93 -2 c22 -10 21 -11
-15 -5 -22 3 -44 10 -50 15 -13 13 31 6 65 -10z m785 -2 c11 -16 -2 -22 -32
-14 -26 7 -26 8 -8 15 28 12 33 12 40 -1z m-922 -6 c-7 -2 -21 -2 -30 0 -10 3
-4 5 12 5 17 0 24 -2 18 -5z m261 0 c17 -5 16 -7 -9 -29 -29 -25 -69 -31 -95
-14 -11 7 -6 10 20 10 31 1 33 2 18 14 -10 7 -18 16 -18 19 0 7 58 7 84 0z
m76 -3 c0 -5 -8 -10 -17 -10 -15 0 -16 2 -3 10 19 12 20 12 20 0z m1080 -5 c0
-8 -4 -15 -9 -15 -5 0 -11 7 -15 15 -3 9 0 15 9 15 8 0 15 -7 15 -15z m-415
-5 c-27 -12 -35 -12 -35 0 0 6 12 10 28 9 24 0 25 -1 7 -9z m485 -10 c6 -11 7
-20 3 -20 -5 0 -14 9 -21 20 -7 11 -8 20 -2 20 5 0 14 -9 20 -20z m100 -41
c12 -16 20 -32 18 -34 -5 -6 -78 65 -78 76 0 17 37 -9 60 -42z m230 41 c0 -5
-2 -10 -4 -10 -3 0 -8 5 -11 10 -3 6 -1 10 4 10 6 0 11 -4 11 -10z m-1700 -10
c8 -5 11 -10 5 -10 -5 0 -17 5 -25 10 -8 5 -10 10 -5 10 6 0 17 -5 25 -10z
m220 -20 c0 -7 -39 -4 -70 6 -12 4 -12 7 -1 14 15 9 71 -7 71 -20z m627 14
c-3 -3 -12 -4 -19 -1 -8 3 -5 6 6 6 11 1 17 -2 13 -5z m499 -30 c-6 -15 -4
-15 19 0 25 17 27 16 76 -20 27 -20 48 -39 45 -42 -3 -2 -21 7 -40 22 -19 14
-37 26 -40 26 -2 0 -2 -16 1 -35 7 -44 -4 -44 -45 -2 -22 22 -30 39 -26 50 3
9 8 17 11 17 3 0 2 -7 -1 -16z m-676 -2 c0 -4 -12 -8 -27 -9 -24 -1 -25 -1 -8
7 26 11 35 12 35 2z m-480 -12 c0 -5 -8 -10 -17 -10 -15 0 -16 2 -3 10 19 12
20 12 20 0z m-175 -10 c3 -5 -1 -10 -9 -10 -9 0 -16 5 -16 10 0 6 4 10 9 10 6
0 13 -4 16 -10z m745 6 c0 -3 -4 -8 -10 -11 -5 -3 -10 -1 -10 4 0 6 5 11 10
11 6 0 10 -2 10 -4z m-611 -22 c2 -2 2 -7 -2 -10 -9 -10 -68 7 -61 18 5 9 52
3 63 -8z m1031 -26 c0 -9 5 -18 12 -20 6 -2 9 -11 6 -18 -3 -10 -10 -5 -21 17
-19 36 -24 80 -7 53 5 -8 10 -22 10 -32z m145 -6 c-6 -7 -34 29 -34 43 0 6 9
-1 20 -14 11 -13 17 -26 14 -29z m-1105 28 c0 -5 -4 -10 -9 -10 -6 0 -13 5
-16 10 -3 6 1 10 9 10 9 0 16 -4 16 -10z m-193 -6 c-3 -3 -12 -4 -19 -1 -8 3
-5 6 6 6 11 1 17 -2 13 -5z m435 -26 c30 -30 15 -32 -51 -9 -34 12 -72 21 -85
21 -14 0 -28 5 -31 10 -5 8 17 9 71 4 56 -5 82 -12 96 -26z m156 12 c12 -19
10 -21 -20 -24 -6 -1 -12 9 -13 22 -2 27 16 29 33 2z m362 10 c0 -5 -4 -10
-10 -10 -5 0 -10 5 -10 10 0 6 5 10 10 10 6 0 10 -4 10 -10z m156 -67 c19 -19
27 -33 20 -33 -8 0 -31 16 -51 35 -20 20 -40 33 -45 30 -6 -4 -10 -2 -10 4 0
5 -3 17 -7 27 -5 14 0 12 27 -7 18 -13 48 -39 66 -56z m-636 57 c0 -5 -4 -10
-10 -10 -5 0 -10 5 -10 10 0 6 5 10 10 10 6 0 10 -4 10 -10z m228 -2 c-3 -7
-11 -13 -18 -13 -7 0 -15 6 -17 13 -3 7 4 12 17 12 13 0 20 -5 18 -12z m525
-21 c20 -16 22 -27 5 -27 -14 0 -58 40 -58 52 0 9 23 -2 53 -25z m-918 3 c-3
-5 -15 -10 -25 -10 -10 0 -22 5 -25 10 -4 6 7 10 25 10 18 0 29 -4 25 -10z
m200 -20 c3 -5 -3 -10 -15 -10 -12 0 -18 5 -15 10 3 6 10 10 15 10 5 0 12 -4
15 -10z m445 -17 c0 -10 -6 -13 -16 -9 -9 3 -21 6 -27 6 -6 0 -2 6 8 14 22 16
35 12 35 -11z m269 -14 c13 -11 21 -23 17 -26 -4 -4 -19 5 -34 20 -31 31 -19
36 17 6z m-1054 -29 c3 -5 -1 -10 -10 -10 -9 0 -13 5 -10 10 3 6 8 10 10 10 2
0 7 -4 10 -10z m809 -29 c11 -12 15 -21 9 -21 -14 0 -63 39 -63 51 0 13 30 -4
54 -30z m66 29 c0 -5 -4 -10 -10 -10 -5 0 -10 5 -10 10 0 6 5 10 10 10 6 0 10
-4 10 -10z m-176 -15 c3 -8 11 -14 17 -13 18 4 22 -21 5 -28 -17 -6 -58 34
-49 48 7 13 20 9 27 -7z m166 -28 c0 -11 -39 16 -45 31 -3 8 4 6 20 -5 13 -10
25 -21 25 -26z m-900 9 c0 -9 -7 -12 -20 -9 -11 3 -20 9 -20 14 0 5 9 9 20 9
11 0 20 -6 20 -14z m956 -4 c-10 -2 -22 0 -28 6 -6 6 0 7 19 4 21 -5 23 -7 9
-10z m-131 -52 c3 -5 2 -10 -4 -10 -5 0 -13 5 -16 10 -3 6 -2 10 4 10 5 0 13
-4 16 -10z m-60 -10 c3 -5 1 -10 -4 -10 -6 0 -11 5 -11 10 0 6 2 10 4 10 3 0
8 -4 11 -10z m-1271 -16 c42 -16 -2 -39 -49 -25 l-30 9 28 1 c15 1 27 6 27 11
0 12 3 12 24 4z m1470 -16 c5 -10 7 -10 12 0 13 27 24 9 24 -39 0 -46 2 -50
20 -44 13 4 21 2 21 -7 1 -7 3 -28 5 -46 1 -18 6 -41 10 -50 4 -9 8 -43 9 -74
l2 -58 -38 31 c-57 45 -77 74 -89 135 -6 30 -16 54 -21 54 -6 0 -7 5 -4 10 9
15 -4 30 -20 24 -8 -4 -12 -10 -9 -15 3 -5 -2 -6 -11 -3 -14 6 -13 9 5 21 15
11 20 23 17 39 -3 17 1 24 17 27 39 8 44 7 50 -5z m-1844 -8 c0 -5 -4 -10 -10
-10 -5 0 -10 5 -10 10 0 6 5 10 10 10 6 0 10 -4 10 -10z m650 -10 c0 -5 -4
-10 -10 -10 -5 0 -10 5 -10 10 0 6 5 10 10 10 6 0 10 -4 10 -10z m638 -5 c8
-8 -11 -47 -38 -77 -16 -18 -27 -34 -25 -36 2 -3 0 -13 -6 -23 -11 -22 -9 -23
25 -8 26 12 43 39 25 39 -13 0 -7 21 6 22 6 1 15 8 22 17 10 14 12 14 19 -3
10 -27 -3 -259 -18 -292 -18 -44 -49 -74 -75 -74 -13 0 -23 -6 -23 -12 -1 -8
-6 -6 -14 5 -7 9 -22 17 -32 17 -10 0 -24 4 -30 8 -11 7 -27 135 -18 144 2 3
6 56 7 119 4 126 8 141 40 158 20 10 124 7 135 -4z m-1338 -24 c0 -12 -20 -25
-27 -18 -7 7 6 27 18 27 5 0 9 -4 9 -9z m720 -1 c0 -5 -4 -10 -10 -10 -5 0
-10 5 -10 10 0 6 5 10 10 10 6 0 10 -4 10 -10z m910 -10 c0 -5 -4 -10 -10 -10
-5 0 -10 5 -10 10 0 6 5 10 10 10 6 0 10 -4 10 -10z m146 -41 c-3 -29 -19 -48
-38 -49 -12 0 -9 13 7 33 7 11 11 25 8 33 -3 8 1 14 11 14 12 0 15 -8 12 -31z
m-116 -9 c0 -5 -5 -10 -11 -10 -5 0 -7 5 -4 10 3 6 8 10 11 10 2 0 4 -4 4 -10z
m-1712 -69 c-2 -30 0 -35 15 -33 23 4 23 -47 1 -94 -24 -50 -44 -44 -46 14 0
26 0 54 1 62 1 8 4 33 5 55 4 49 4 48 17 40 6 -4 9 -23 7 -44z m1692 24 c0 -8
-4 -15 -10 -15 -5 0 -10 7 -10 15 0 8 5 15 10 15 6 0 10 -7 10 -15z m-552 -44
c2 -13 -1 -28 -7 -34 -5 -5 -7 -22 -4 -37 6 -31 -11 -48 -31 -31 -16 14 -52
-24 -54 -57 -1 -28 -20 -54 -33 -46 -5 3 -9 24 -9 47 l-1 42 -17 -30 c-9 -16
-17 -32 -17 -35 0 -3 -8 -16 -17 -30 -15 -22 -35 -113 -30 -132 1 -5 -5 -8
-13 -8 -11 0 -15 12 -15 49 0 28 5 53 10 56 6 3 19 26 30 50 34 75 99 165 120
165 34 0 50 12 50 37 0 32 34 28 38 -6z m-281 -72 c-8 -5 -18 -25 -21 -44 -4
-19 -11 -35 -16 -35 -13 0 -13 1 6 46 21 51 37 71 42 54 3 -7 -2 -17 -11 -21z
m41 -81 c-55 -62 -88 -83 -88 -55 0 16 41 54 97 91 21 14 40 25 42 25 2 1 -21
-27 -51 -61z m-878 -53 c-7 -8 -23 -15 -37 -15 -21 0 -24 4 -21 27 2 19 10 29
28 33 31 8 50 -21 30 -45z m1080 -39 c0 -3 -4 -8 -10 -11 -5 -3 -10 -1 -10 4
0 6 5 11 10 11 6 0 10 -2 10 -4z m-1090 -51 c0 -8 -7 -15 -15 -15 -9 0 -12 6
-9 15 4 8 10 15 15 15 5 0 9 -7 9 -15z m1310 -4 c0 -6 -4 -13 -10 -16 -5 -3
-10 -14 -10 -23 0 -9 -10 -37 -22 -62 -12 -25 -20 -50 -19 -57 1 -8 -7 -9 -26
-4 -23 6 -29 14 -31 41 -3 29 3 39 50 81 53 49 68 57 68 40z m-490 -76 c-7 -9
-15 -13 -19 -10 -3 3 1 10 9 15 21 14 24 12 10 -5z m154 -10 c-4 -8 -10 -12
-15 -9 -14 8 -10 24 6 24 9 0 12 -6 9 -15z m398 -57 c4 -111 -3 -222 -13 -235
-8 -8 -17 -8 -37 3 -15 8 -33 14 -39 14 -18 0 -16 17 4 28 13 8 15 19 10 60
-3 28 -11 59 -18 70 -10 16 -6 27 30 75 23 32 46 57 51 57 6 0 11 -33 12 -72z
m-1382 -49 c0 -14 -39 -49 -55 -49 -8 0 -6 32 6 74 l11 40 19 -25 c10 -13 19
-31 19 -40z m363 40 c-18 -12 -33 -26 -33 -32 0 -8 -3 -8 -12 1 -20 20 10 44
67 50 6 1 -5 -8 -22 -19z m412 12 c3 -5 1 -12 -5 -16 -5 -3 -10 1 -10 9 0 18
6 21 15 7z m-280 -11 c3 -5 1 -10 -4 -10 -6 0 -11 5 -11 10 0 6 2 10 4 10 3 0
8 -4 11 -10z m-592 -35 c-3 -9 -8 -14 -10 -11 -3 3 -2 9 2 15 9 16 15 13 8 -4z
m1011 -10 c-25 -19 -40 -19 -24 0 7 8 20 15 28 15 13 0 12 -3 -4 -15z m-1004
-36 c0 -5 -4 -9 -10 -9 -5 0 -10 7 -10 16 0 8 5 12 10 9 6 -3 10 -10 10 -16z
m837 14 c-14 -3 -15 -8 -7 -18 8 -10 2 -16 -28 -28 -42 -17 -92 -68 -92 -95 0
-13 -3 -13 -12 -4 -10 10 -10 17 2 35 7 12 20 34 28 50 7 15 19 27 26 27 7 0
23 9 36 20 13 11 32 19 44 19 18 -1 18 -2 3 -6z m78 -49 c-8 -13 -15 -35 -15
-49 0 -30 -15 -33 -30 -6 -15 29 -12 61 5 61 8 0 15 6 15 14 0 9 7 12 20 9 19
-5 20 -7 5 -29z m-929 -21 c-11 -11 -19 6 -11 24 8 17 8 17 12 0 3 -10 2 -21
-1 -24z m474 1 c0 -4 -13 -20 -30 -36 -16 -15 -30 -32 -30 -37 0 -5 -6 -14
-14 -21 -8 -6 -12 -18 -9 -26 3 -8 0 -14 -6 -14 -28 0 -7 43 64 127 11 13 25
17 25 7z m-391 -28 c14 -16 3 -76 -13 -76 -20 0 -36 23 -36 50 0 41 26 54 49
26z m1266 -35 c-2 -5 20 -16 50 -26 58 -18 75 -36 75 -79 0 -31 -2 -31 -46
-10 -28 13 -40 14 -60 5 -43 -19 -62 -14 -69 19 -7 34 1 67 23 92 14 17 38 15
27 -1z m1725 -12 c0 -6 -4 -7 -10 -4 -5 3 -10 11 -10 16 0 6 5 7 10 4 6 -3 10
-11 10 -16z m-3083 -21 c-3 -8 -6 -5 -6 6 -1 11 2 17 5 13 3 -3 4 -12 1 -19z
m923 12 c0 -5 -4 -10 -10 -10 -5 0 -10 5 -10 10 0 6 5 10 10 10 6 0 10 -4 10
-10z m-39 -47 c-8 -15 -10 -15 -11 -2 0 17 10 32 18 25 2 -3 -1 -13 -7 -23z
m-242 -30 c-8 -10 -28 -32 -44 -50 -21 -22 -37 -55 -50 -105 -19 -69 -20 -71
-23 -35 -2 23 3 48 12 62 9 14 16 31 16 39 0 8 21 35 47 60 47 47 67 60 42 29z
m-557 -53 c2 -22 -3 -75 -10 -117 -7 -43 -11 -94 -9 -114 3 -25 -1 -46 -14
-65 l-18 -28 -9 25 c-5 13 -7 79 -4 147 4 108 7 124 24 133 10 6 18 18 17 27
-2 25 0 32 10 32 5 0 11 -18 13 -40z m569 -21 c-15 -74 -53 -170 -82 -208 -16
-20 -20 -21 -25 -7 -7 18 20 92 43 118 9 10 13 23 10 31 -3 7 4 19 14 25 10 7
18 15 17 20 0 4 2 15 5 25 4 9 9 24 12 33 11 33 15 6 6 -37z m704 31 c3 -5 1
-10 -4 -10 -6 0 -11 5 -11 10 0 6 2 10 4 10 3 0 8 -4 11 -10z m-641 -32 c-4
-13 -8 -61 -10 -108 -3 -135 -4 -141 -13 -136 -12 8 -14 207 -2 239 13 33 37
37 25 5z m-829 -17 c3 -5 1 -12 -5 -16 -5 -3 -10 1 -10 9 0 18 6 21 15 7z
m1455 -7 c0 -8 -4 -12 -10 -9 -5 3 -10 10 -10 16 0 5 5 9 10 9 6 0 10 -7 10
-16z m-1360 -40 c0 -8 -5 -12 -10 -9 -6 4 -8 11 -5 16 9 14 15 11 15 -7z m-50
-28 c0 -2 -7 -9 -15 -16 -12 -10 -15 -10 -15 4 0 9 7 16 15 16 8 0 15 -2 15
-4z m57 -28 c-3 -8 -6 -5 -6 6 -1 11 2 17 5 13 3 -3 4 -12 1 -19z m762 -10 c5
-13 12 -34 16 -48 7 -25 7 -25 -8 -4 -17 23 -33 74 -23 74 4 0 10 -10 15 -22z
m705 -35 c-33 -12 -38 -22 -22 -40 16 -17 15 -19 -16 -29 -31 -9 -33 -9 -28
10 5 20 4 20 -15 4 -11 -10 -26 -18 -34 -18 -8 0 -20 -5 -27 -12 -9 -9 -12 -5
-12 21 0 29 5 34 48 53 60 27 106 37 111 24 2 -5 0 -11 -5 -13z m-1524 -23 c0
-5 -4 -10 -10 -10 -5 0 -10 5 -10 10 0 6 5 10 10 10 6 0 10 -4 10 -10z m595
-110 c-10 -11 -20 -18 -23 -15 -7 6 18 35 31 35 5 0 2 -9 -8 -20z m821 12 c15
-10 37 -52 30 -59 -10 -10 -77 8 -83 23 -13 33 22 57 53 36z m-346 -10 c0 -13
-12 -22 -22 -16 -10 6 -1 24 13 24 5 0 9 -4 9 -8z m2090 -2 c0 -5 -2 -10 -4
-10 -3 0 -8 5 -11 10 -3 6 -1 10 4 10 6 0 11 -4 11 -10z m-3180 -41 c0 -11 -4
-18 -10 -14 -5 3 -7 12 -3 20 7 21 13 19 13 -6z m1557 -4 c1 -5 -1 -16 -6 -24
-8 -13 -14 -13 -38 -2 -27 12 -27 13 -8 27 21 16 46 15 52 -1z m1623 -11 c0
-8 -4 -12 -10 -9 -5 3 -10 10 -10 16 0 5 5 9 10 9 6 0 10 -7 10 -16z m0 -61
c0 -19 -3 -24 -10 -17 -6 6 -8 18 -4 27 9 24 14 21 14 -10z m-2450 -20 c0 -3
-13 -18 -29 -32 -15 -14 -36 -41 -45 -58 -9 -18 -18 -33 -19 -33 -2 0 -3 19
-2 43 1 35 5 44 28 55 15 7 27 17 27 23 0 5 9 9 20 9 11 0 20 -3 20 -7z m2450
-73 c0 -5 -4 -10 -10 -10 -5 0 -10 5 -10 10 0 6 5 10 10 10 6 0 10 -4 10 -10z"/>
<path d="M1676 1321 c-4 -5 -2 -12 3 -15 5 -4 12 -2 15 3 4 5 2 12 -3 15 -5 4
-12 2 -15 -3z"/>
<path d="M2894 5027 c-69 -37 -80 -46 -68 -54 6 -5 13 -16 17 -25 7 -20 32
-24 42 -7 4 6 -1 17 -11 24 -15 11 -16 14 -4 14 8 0 24 -6 34 -14 16 -12 22
-12 34 -2 12 9 16 9 19 0 3 -7 10 -13 16 -13 6 0 -3 15 -20 33 -25 25 -30 36
-22 50 12 21 13 21 -37 -6z"/>
<path d="M3886 4954 c-21 -24 -35 -44 -31 -44 10 0 75 71 75 82 0 12 -1 11
-44 -38z"/>
<path d="M4195 4970 c-3 -5 -1 -10 4 -10 6 0 11 5 11 10 0 6 -2 10 -4 10 -3 0
-8 -4 -11 -10z"/>
<path d="M4150 4940 c0 -5 4 -10 9 -10 6 0 13 5 16 10 3 6 -1 10 -9 10 -9 0
-16 -4 -16 -10z"/>
<path d="M3814 4880 c-30 -33 -228 -222 -263 -253 -17 -15 -43 -33 -56 -39
-14 -6 -25 -15 -25 -20 0 -4 -6 -8 -13 -8 -7 0 -24 -13 -37 -30 -14 -16 -32
-29 -40 -30 -19 -1 -51 -25 -44 -33 4 -3 -6 -9 -22 -13 -15 -4 -43 -22 -61
-40 -18 -19 -36 -34 -38 -34 -3 0 -9 0 -13 0 -5 0 -26 -16 -48 -35 -21 -19
-44 -35 -51 -35 -6 0 -13 -4 -15 -8 -1 -5 -29 -23 -61 -41 -32 -18 -57 -37
-55 -43 2 -5 8 -8 13 -6 6 2 9 7 7 12 -2 5 4 6 13 2 9 -3 13 -2 10 3 -3 5 5
11 17 13 13 2 22 9 20 16 -1 7 3 12 10 11 25 -3 37 1 53 18 13 13 19 13 25 4
11 -19 26 -9 206 135 88 70 171 134 185 143 15 8 40 30 55 48 76 89 93 103
118 103 20 0 29 8 41 38 9 20 31 53 49 72 45 49 60 70 49 70 -5 0 -18 -9 -29
-20z"/>
<path d="M2810 4840 c-15 -9 -4 -50 13 -50 18 0 57 29 57 43 0 13 -52 18 -70
7z"/>
<path d="M3126 4833 c-11 -11 -6 -23 10 -23 8 0 12 -5 8 -11 -4 -8 1 -9 17 -4
18 5 20 4 9 -4 -8 -5 -12 -11 -10 -13 3 -2 19 -13 37 -25 48 -34 54 -7 7 33
-48 42 -70 55 -78 47z"/>
<path d="M3879 4751 c-13 -11 -19 -20 -14 -20 14 0 50 28 43 34 -3 3 -16 -3
-29 -14z"/>
<path d="M791 4724 c13 -16 29 -19 29 -5 0 5 -9 11 -21 14 -16 4 -18 3 -8 -9z"/>
<path d="M3253 4733 c-23 -8 -14 -25 9 -18 17 6 20 4 15 -9 -5 -12 1 -20 21
-27 48 -20 57 -26 54 -43 -2 -14 2 -15 25 -10 25 6 26 5 15 -8 -15 -19 -2 -31
22 -22 23 9 20 16 -20 44 -19 14 -41 31 -49 38 -7 6 -26 12 -42 13 -15 0 -22
3 -15 6 6 2 12 8 12 11 0 12 -34 29 -47 25z"/>
<path d="M3745 4690 c3 -5 8 -10 11 -10 2 0 4 5 4 10 0 6 -5 10 -11 10 -5 0
-7 -4 -4 -10z"/>
<path d="M3030 4680 c0 -5 5 -10 10 -10 6 0 10 5 10 10 0 6 -4 10 -10 10 -5 0
-10 -4 -10 -10z"/>
<path d="M3675 4640 c-3 -5 -1 -10 4 -10 6 0 11 5 11 10 0 6 -2 10 -4 10 -3 0
-8 -4 -11 -10z"/>
<path d="M3690 4610 c0 -5 4 -10 9 -10 6 0 13 5 16 10 3 6 -1 10 -9 10 -9 0
-16 -4 -16 -10z"/>
<path d="M3645 4590 c-3 -6 1 -7 9 -4 18 7 21 14 7 14 -6 0 -13 -4 -16 -10z"/>
<path d="M3460 4459 c0 -5 5 -7 10 -4 6 3 10 8 10 11 0 2 -4 4 -10 4 -5 0 -10
-5 -10 -11z"/>
<path d="M0 4425 c0 -19 21 -65 31 -65 4 0 16 -3 26 -7 14 -5 11 1 -9 26 -16
18 -28 39 -28 47 0 8 -4 14 -10 14 -5 0 -10 -7 -10 -15z"/>
<path d="M3405 4410 c-3 -6 1 -7 9 -4 18 7 21 14 7 14 -6 0 -13 -4 -16 -10z"/>
<path d="M4556 4411 c-4 -5 -1 -22 4 -37 8 -21 14 -24 22 -16 9 9 9 15 1 23
-6 6 -9 18 -6 25 6 15 -12 19 -21 5z"/>
<path d="M4325 4344 l-30 -26 33 18 c17 10 32 22 32 26 0 11 -1 10 -35 -18z"/>
<path d="M4490 4356 c0 -9 5 -16 10 -16 6 0 10 4 10 9 0 6 -4 13 -10 16 -5 3
-10 -1 -10 -9z"/>
<path d="M4500 4316 c0 -9 5 -16 10 -16 6 0 10 4 10 9 0 6 -4 13 -10 16 -5 3
-10 -1 -10 -9z"/>
<path d="M4560 4314 c0 -8 5 -12 10 -9 6 3 10 10 10 16 0 5 -4 9 -10 9 -5 0
-10 -7 -10 -16z"/>
<path d="M7 4313 c-17 -16 -5 -50 23 -66 18 -11 27 -23 23 -32 -10 -26 12 -16
28 14 19 32 16 38 -28 69 -34 24 -37 25 -46 15z"/>
<path d="M4260 4300 c-9 -6 -10 -10 -3 -10 6 0 15 5 18 10 8 12 4 12 -15 0z"/>
<path d="M1900 4290 c-8 -5 -12 -12 -9 -15 4 -3 12 1 19 10 14 17 11 19 -10 5z"/>
<path d="M4397 4287 c-3 -9 1 -18 9 -21 16 -6 18 2 5 22 -7 11 -9 11 -14 -1z"/>
<path d="M1532 4279 c2 -7 10 -15 17 -17 8 -3 12 1 9 9 -2 7 -10 15 -17 17 -8
3 -12 -1 -9 -9z"/>
<path d="M1700 4182 c-159 -112 -251 -186 -326 -265 -45 -46 -85 -94 -89 -106
-3 -11 -12 -21 -20 -21 -7 0 -15 -7 -19 -15 -4 -11 2 -15 22 -15 20 0 39 14
77 58 103 117 158 163 177 144 8 -8 18 -6 36 8 13 11 43 25 66 31 22 6 54 22
70 36 24 20 36 23 65 18 20 -3 41 -13 47 -21 6 -8 14 -14 18 -14 11 0 6 66 -6
78 -9 9 -7 12 9 12 16 0 22 7 25 35 4 32 2 34 -19 29 -18 -5 -22 -3 -17 10 4
11 1 16 -10 16 -9 0 -16 7 -16 15 0 24 -20 16 -90 -33z"/>
<path d="M2936 4201 c-3 -5 0 -11 7 -14 8 -3 14 1 14 9 0 16 -13 19 -21 5z"/>
<path d="M4390 4193 c0 -10 -3 -29 -7 -42 -5 -21 -4 -22 15 -12 14 8 20 20 20
41 -1 32 -28 44 -28 13z"/>
<path d="M120 4174 c0 -12 -8 -15 -32 -12 -29 3 -33 0 -33 -22 0 -21 -4 -25
-28 -22 l-27 3 0 -85 c0 -83 1 -86 30 -108 35 -25 38 -43 10 -58 -13 -7 -20
-21 -20 -40 0 -17 -4 -30 -10 -30 -6 0 -10 -27 -10 -60 0 -47 3 -60 15 -60 8
0 15 -5 15 -11 0 -5 4 -7 10 -4 5 3 10 14 10 24 0 14 9 18 40 19 32 2 43 -3
56 -24 16 -24 16 -26 -5 -45 -12 -11 -19 -25 -15 -31 4 -6 1 -14 -6 -18 -11
-7 -10 -14 4 -35 21 -31 10 -51 -23 -40 -15 4 -21 15 -21 35 0 30 -23 43 -60
33 -37 -10 -20 -123 19 -123 6 0 11 -4 11 -10 0 -5 -11 -10 -25 -10 -23 0 -25
-3 -25 -51 0 -29 4 -48 9 -44 12 7 34 -32 26 -45 -3 -6 -13 -10 -21 -10 -18 0
-18 -29 1 -50 8 -9 18 -38 21 -64 6 -43 5 -48 -15 -53 -21 -5 -21 -6 -21 -335
0 -187 4 -327 9 -324 13 9 21 46 9 46 -6 0 -6 6 2 14 6 8 17 13 23 11 7 -3 25
6 40 19 25 20 27 26 17 50 -26 70 -2 111 47 79 23 -15 26 -15 34 -1 5 9 25 35
45 59 20 24 41 55 47 69 6 14 31 46 55 72 33 34 43 52 39 67 -4 16 2 25 23 36
15 8 30 22 34 30 8 23 8 25 -8 25 -18 0 -69 74 -64 96 9 47 68 43 68 -5 0 -20
7 -34 20 -41 17 -9 22 -7 31 14 7 14 25 30 41 35 16 6 32 20 35 31 3 11 11 20
19 20 8 0 11 6 8 15 -4 9 0 15 10 15 17 0 20 9 8 25 -9 13 -92 17 -92 5 0 -19
-23 -10 -52 20 -15 17 -33 30 -38 30 -6 0 -10 8 -10 18 0 15 6 17 35 14 27 -3
39 -11 51 -33 19 -37 34 -37 34 -1 0 20 -7 33 -25 42 -17 9 -23 19 -20 31 4
11 -2 23 -16 33 -13 9 -20 18 -16 22 13 13 37 -6 51 -41 15 -35 36 -47 36 -20
0 22 31 54 46 48 10 -3 9 7 -3 45 -13 39 -23 53 -49 66 -19 8 -40 13 -48 10
-8 -3 -21 5 -30 18 -21 30 -20 38 4 38 25 0 25 5 -1 46 -11 19 -18 38 -14 44
3 5 -3 10 -14 10 -14 0 -19 5 -15 15 7 17 -21 21 -31 5 -7 -11 -57 -13 -105
-4 -22 5 -28 9 -18 15 9 6 6 9 -10 9 -16 0 -22 -5 -20 -17 2 -10 -3 -18 -9
-17 -7 1 -23 2 -36 3 -17 1 -26 10 -33 34 -11 35 -8 67 7 67 5 0 9 -4 9 -10 0
-5 20 -10 45 -10 33 0 45 4 45 15 0 14 -34 24 -100 28 -46 3 -66 16 -74 50 -7
29 10 39 20 12 4 -9 19 -15 40 -15 21 0 37 -6 43 -17 6 -12 20 -16 45 -15 26
2 36 -1 36 -12 0 -14 48 -51 56 -43 7 7 -66 77 -81 77 -8 0 -15 7 -15 16 0 12
7 15 27 11 20 -4 31 1 46 20 14 18 27 23 44 20 21 -4 24 -1 21 22 -2 15 -9 26
-18 26 -8 0 -20 6 -26 14 -6 8 -16 11 -24 6 -8 -5 -11 -3 -8 6 3 8 11 13 17
12 18 -5 12 16 -9 29 -11 7 -20 17 -20 21 0 5 -6 15 -14 23 -15 14 -46 9 -46
-7 0 -22 -29 -6 -39 22 -14 39 -8 49 32 50 l32 2 -30 4 c-16 3 -34 11 -38 19
-11 19 -47 18 -47 -2z m38 -129 c3 -25 2 -27 -12 -16 -19 16 -22 55 -3 49 6
-3 14 -17 15 -33z m102 -31 c0 -8 -4 -13 -10 -9 -5 3 -18 -3 -29 -14 -13 -13
-16 -21 -8 -24 8 -3 6 -7 -5 -12 -10 -4 -25 -5 -33 -1 -22 8 -18 36 4 36 11 0
26 6 33 13 11 11 27 20 46 26 1 1 2 -6 2 -15z m2 -56 c-9 -9 -15 -9 -24 0 -9
9 -7 12 12 12 19 0 21 -3 12 -12z m-47 -38 c3 -5 -1 -10 -9 -10 -9 0 -16 5
-16 10 0 6 4 10 9 10 6 0 13 -4 16 -10z m164 -414 c7 -8 15 -30 18 -50 6 -40
-3 -45 -51 -26 -28 10 -31 24 -16 64 11 29 31 34 49 12z m-99 -51 c11 -20 11
-27 0 -40 -14 -17 -57 -20 -62 -5 -2 6 -13 12 -26 13 -15 1 -22 8 -22 22 0 29
2 30 53 33 37 1 46 -2 57 -23z m-140 -31 c0 -8 -4 -12 -10 -9 -5 3 -10 10 -10
16 0 5 5 9 10 9 6 0 10 -7 10 -16z m311 -52 c-7 -2 -19 -1 -29 3 -14 5 -14 7
-2 15 9 5 20 4 28 -3 10 -8 11 -12 3 -15z m-201 -8 c0 -2 -7 -4 -15 -4 -8 0
-15 4 -15 10 0 5 7 7 15 4 8 -4 15 -8 15 -10z m-44 -20 c26 -1 50 -7 53 -13 5
-7 18 -8 38 -2 23 7 37 5 52 -6 12 -8 19 -18 16 -23 -3 -4 2 -10 10 -14 18 -7
19 -45 1 -68 -23 -31 -42 -21 -37 20 1 6 -5 12 -13 12 -8 0 -31 16 -50 36 -30
31 -39 35 -78 32 -24 -2 -43 -8 -43 -15 0 -6 -3 -15 -7 -19 -5 -4 -8 0 -8 9 0
8 -8 23 -17 33 -16 15 -16 17 2 30 14 11 21 11 26 2 4 -7 29 -13 55 -14z m299
-134 l30 -7 -29 -12 c-33 -13 -66 -6 -66 15 0 15 16 16 65 4z m-436 -154 c14
-17 0 -29 -23 -20 -17 7 -20 16 -9 27 10 11 19 8 32 -7z m120 -80 c9 -11 10
-20 2 -35 -6 -11 -10 -26 -9 -33 4 -17 -33 -23 -43 -6 -15 23 -10 66 9 77 23
14 28 13 41 -3z m-95 -13 c4 -9 3 -20 -1 -24 -13 -13 -34 6 -27 24 8 22 20 22
28 0z"/>
<path d="M4460 4170 c0 -5 5 -10 10 -10 6 0 10 5 10 10 0 6 -4 10 -10 10 -5 0
-10 -4 -10 -10z"/>
<path d="M2810 4102 c0 -6 6 -13 13 -16 6 -3 2 -3 -10 0 -14 3 -23 1 -23 -6 0
-6 -10 -10 -22 -8 -15 2 -23 -2 -23 -12 0 -18 52 -22 77 -6 22 13 23 30 3 46
-9 8 -15 8 -15 2z"/>
<path d="M4541 4074 c0 -11 3 -14 6 -6 3 7 2 16 -1 19 -3 4 -6 -2 -5 -13z"/>
<path d="M1948 4043 c7 -3 16 -2 19 1 4 3 -2 6 -13 5 -11 0 -14 -3 -6 -6z"/>
<path d="M1148 4016 c-10 -7 -18 -18 -18 -25 0 -6 -6 -11 -14 -11 -23 0 -28
-59 -9 -98 19 -38 60 -53 78 -29 5 7 17 17 25 21 45 21 55 33 55 60 0 24 -9
37 -43 63 -49 37 -50 37 -74 19z"/>
<path d="M2023 3997 c2 -6 12 -14 22 -16 10 -2 27 -14 38 -27 10 -13 23 -22
28 -19 5 4 9 1 9 -4 0 -6 12 -11 26 -11 23 0 24 2 10 15 -8 8 -18 15 -22 15
-4 0 -15 6 -23 14 -25 22 -93 48 -88 33z"/>
<path d="M2855 3991 c-3 -5 -2 -12 3 -15 5 -3 9 1 9 9 0 17 -3 19 -12 6z"/>
<path d="M2906 3981 c-4 -5 -2 -12 3 -15 5 -4 12 -2 15 3 4 5 2 12 -3 15 -5 4
-12 2 -15 -3z"/>
<path d="M373 3898 c-18 -23 -22 -58 -7 -58 8 0 14 7 14 15 0 8 7 15 15 15 17
0 18 2 9 24 -7 19 -18 20 -31 4z"/>
<path d="M4480 3825 c0 -22 4 -34 10 -30 6 3 10 17 10 30 0 13 -4 27 -10 30
-6 4 -10 -8 -10 -30z"/>
<path d="M351 3814 c0 -11 3 -14 6 -6 3 7 2 16 -1 19 -3 4 -6 -2 -5 -13z"/>
<path d="M4513 3770 c0 -36 2 -50 4 -32 2 17 2 47 0 65 -2 17 -4 3 -4 -33z"/>
<path d="M2433 3805 c5 -10 3 -14 -4 -9 -6 4 -15 0 -20 -7 -7 -12 -9 -12 -9 0
0 8 -13 1 -34 -17 -19 -17 -48 -33 -64 -37 -26 -5 -46 -32 -43 -57 0 -3 -6
-12 -14 -18 -22 -18 -18 -30 8 -30 14 0 34 15 57 45 19 24 41 44 48 45 6 0 12
5 12 11 0 7 9 9 22 6 12 -4 29 -1 37 6 11 9 15 9 18 0 6 -18 33 -16 33 2 0 8
-5 15 -11 15 -6 0 -9 8 -7 18 3 12 -2 24 -15 31 -17 11 -19 11 -14 -4z"/>
<path d="M4482 3745 c0 -16 2 -22 5 -12 2 9 2 23 0 30 -3 6 -5 -1 -5 -18z"/>
<path d="M350 3750 c0 -5 7 -10 15 -10 8 0 15 5 15 10 0 6 -7 10 -15 10 -8 0
-15 -4 -15 -10z"/>
<path d="M1360 3741 c0 -5 5 -13 10 -16 6 -3 10 -2 10 4 0 5 -4 13 -10 16 -5
3 -10 2 -10 -4z"/>
<path d="M1710 3700 c0 -5 5 -10 10 -10 6 0 10 5 10 10 0 6 -4 10 -10 10 -5 0
-10 -4 -10 -10z"/>
<path d="M4482 3675 c0 -16 2 -22 5 -12 2 9 2 23 0 30 -3 6 -5 -1 -5 -18z"/>
<path d="M4552 3645 l1 -60 7 45 c4 25 4 52 -1 60 -5 9 -8 -8 -7 -45z"/>
<path d="M1680 3676 c0 -8 -9 -21 -21 -29 -19 -14 -20 -23 -17 -126 2 -61 7
-114 11 -117 15 -15 6 -42 -23 -67 -16 -15 -32 -22 -35 -17 -13 20 -25 9 -19
-16 5 -20 4 -25 -5 -20 -8 6 -10 0 -5 -18 6 -26 -10 -38 -19 -13 -2 6 -2 -1
-1 -18 2 -16 1 -24 -2 -17 -6 12 -44 18 -44 6 0 -16 22 -44 31 -38 5 3 16 1
23 -5 11 -9 15 -6 20 14 7 29 26 34 26 6 0 -10 7 -22 16 -25 22 -9 24 -8 24
10 0 8 5 12 10 9 6 -3 13 1 16 9 7 19 54 43 99 52 31 6 33 4 28 -17 -7 -25
-51 -68 -70 -69 -19 0 -16 9 10 31 l22 20 -25 -7 c-29 -8 -92 -76 -81 -87 4
-4 21 -1 37 8 16 8 37 15 46 15 9 0 20 5 23 10 3 6 15 10 27 10 14 0 18 -5 14
-16 -3 -9 -6 -18 -6 -20 0 -3 -5 -2 -11 2 -8 4 -9 -1 -4 -15 4 -12 2 -28 -5
-36 -8 -9 -8 -15 0 -20 5 -3 14 4 19 17 8 20 10 21 16 6 5 -12 14 -16 29 -12
11 2 30 -2 41 -10 18 -14 18 -15 3 -16 -10 0 -18 4 -18 9 0 5 -13 4 -29 -2
-16 -6 -29 -16 -28 -21 1 -6 -7 -9 -17 -8 -17 3 -18 2 -7 -12 12 -14 10 -16
-8 -16 -20 0 -101 -36 -101 -44 0 -2 14 1 30 7 25 9 33 9 39 -1 8 -13 70 -10
93 5 6 3 9 0 6 -8 -2 -8 -26 -19 -53 -26 -27 -7 -56 -19 -64 -28 -21 -21 0
-20 46 2 33 15 37 15 48 0 7 -10 19 -14 33 -10 16 4 22 1 22 -12 0 -13 6 -15
33 -10 l32 6 -24 -21 c-23 -20 -23 -20 -2 -20 12 0 21 5 21 10 0 6 9 10 20 10
11 0 20 -7 20 -15 0 -19 4 -19 38 -1 15 8 35 29 44 48 16 29 16 39 5 83 -10
37 -18 50 -33 51 -10 1 -23 2 -28 3 -5 1 -3 8 4 16 10 12 9 15 -4 15 -9 0 -26
9 -38 20 -25 23 -26 51 -4 170 9 47 16 112 16 144 0 129 -77 254 -161 261 -22
1 -43 5 -46 8 -3 3 -21 -10 -41 -29 -21 -20 -38 -30 -40 -24 -3 7 1 17 7 23
14 14 15 57 1 57 -5 0 -10 -6 -10 -14z m165 -79 c-9 -22 -24 -36 -46 -43 -48
-17 -47 -1 1 46 47 46 65 45 45 -3z m-105 -57 c0 -5 -7 -10 -16 -10 -8 0 -12
5 -9 10 3 6 10 10 16 10 5 0 9 -4 9 -10z m45 -30 c-3 -5 -12 -10 -18 -10 -7 0
-6 4 3 10 19 12 23 12 15 0z m-5 -145 c-17 -21 -30 -19 -30 5 0 24 33 46 38
24 2 -8 -2 -21 -8 -29z m70 -3 c0 -19 -90 -92 -112 -92 -23 1 -23 1 -3 15 11
8 25 19 30 25 49 50 61 60 72 60 7 0 13 -4 13 -8z m-120 -52 c0 -5 -4 -10 -10
-10 -5 0 -10 5 -10 10 0 6 5 10 10 10 6 0 10 -4 10 -10z m-120 -55 c0 -8 -4
-15 -10 -15 -5 0 -10 7 -10 15 0 8 5 15 10 15 6 0 10 -7 10 -15z m20 -32 c0
-5 -5 -15 -10 -23 -8 -12 -10 -11 -10 8 0 12 5 22 10 22 6 0 10 -3 10 -7z
m234 -199 c9 -3 16 -10 16 -16 0 -5 -4 -7 -9 -4 -5 4 -21 2 -35 -4 -30 -11
-34 -3 -8 16 21 16 17 15 36 8z m63 -10 c-3 -3 -12 -4 -19 -1 -8 3 -5 6 6 6
11 1 17 -2 13 -5z m-37 -72 c0 -11 -41 -34 -48 -28 -3 4 3 13 14 21 21 16 34
19 34 7z"/>
<path d="M4517 3650 c-4 -14 -6 -43 -6 -65 1 -38 2 -37 10 14 10 58 7 92 -4
51z"/>
<path d="M540 3605 c0 -9 9 -15 21 -15 18 0 19 2 9 15 -7 8 -16 15 -21 15 -5
0 -9 -7 -9 -15z"/>
<path d="M2448 3483 c-10 -2 -18 -9 -18 -14 0 -6 10 -5 23 2 37 20 36 23 -5
12z"/>
<path d="M4565 3447 c-4 -10 -5 -21 -1 -24 10 -10 18 4 13 24 -4 17 -4 17 -12
0z"/>
<path d="M651 3191 c-12 -16 -21 -38 -21 -49 0 -11 -7 -23 -17 -26 -14 -6 -14
-8 3 -21 19 -14 11 -20 -22 -16 -7 1 -14 -5 -18 -14 -6 -18 -36 -20 -36 -3 0
6 -6 3 -14 -7 -8 -11 -12 -24 -9 -30 2 -7 -3 -18 -12 -25 -8 -7 -15 -18 -15
-25 0 -7 -8 -19 -17 -26 -15 -12 -16 -12 -9 6 6 15 0 13 -24 -10 -17 -16 -28
-35 -26 -42 3 -7 1 -15 -5 -18 -5 -4 -7 -10 -4 -15 3 -5 1 -11 -5 -15 -5 -3
-10 0 -10 7 -1 9 -5 7 -14 -5 -7 -9 -29 -36 -49 -60 -56 -66 -128 -161 -223
-294 -49 -68 -91 -123 -96 -123 -14 0 -10 -204 4 -218 10 -10 10 -17 0 -32 -9
-14 -12 -91 -12 -277 0 -254 0 -258 21 -268 12 -6 22 -14 22 -20 0 -5 -10 -14
-22 -20 -20 -9 -21 -16 -21 -159 l0 -150 25 35 c29 40 65 86 80 103 6 6 37 43
70 81 32 39 76 86 97 105 35 32 38 38 29 65 -5 17 -10 26 -10 22 -1 -4 -12 3
-25 17 -13 15 -30 26 -39 26 -25 0 -29 18 -7 30 34 18 74 9 78 -18 3 -17 8
-21 21 -17 10 3 24 -1 31 -10 17 -21 24 -19 63 14 18 16 45 33 59 36 30 8 34
31 24 133 -3 24 -1 40 4 37 11 -7 -8 55 -21 70 -11 11 -12 45 -1 45 5 0 16 18
25 39 16 36 17 43 2 77 -14 34 -14 39 1 55 12 13 15 29 11 54 -4 26 -2 38 9
42 7 3 14 14 14 24 0 27 17 23 32 -8 17 -35 34 -39 48 -12 10 17 9 23 -1 29
-21 14 1 104 26 108 11 3 26 9 33 14 16 13 -13 37 -45 38 -12 0 -24 4 -27 9
-3 5 -17 9 -32 9 -29 0 -77 41 -56 49 6 3 12 12 12 20 0 14 2 14 18 0 10 -10
24 -17 30 -17 16 0 15 42 -2 75 -18 34 -14 101 8 179 15 49 20 56 36 51 11 -4
20 -4 20 -2 0 10 -32 67 -41 72 -5 4 -9 24 -9 45 0 31 5 43 25 56 30 20 45 11
45 -25 0 -16 6 -33 13 -39 17 -15 39 1 31 21 -3 10 -1 17 5 17 6 0 11 5 11 11
0 5 -8 9 -18 7 -23 -4 -52 19 -52 40 0 8 13 37 30 63 16 27 25 49 19 49 -6 0
-13 -9 -16 -20 -3 -11 -9 -20 -13 -20 -4 0 -10 9 -13 20 -3 12 0 20 8 20 9 0
11 8 7 22 -3 14 -2 19 6 14 7 -4 12 -3 12 3 0 23 -20 19 -39 -8z m-95 -179
c-4 -3 -11 0 -16 8 -15 24 -11 33 6 15 9 -9 13 -19 10 -23z m-8 -114 c16 -16
15 -53 -3 -68 -9 -7 -26 -9 -45 -5 -26 6 -31 11 -28 33 2 16 13 31 28 39 31
16 33 16 48 1z m-164 -248 c-14 -14 -38 5 -30 26 6 16 8 16 23 1 11 -11 14
-20 7 -27z m19 -38 c24 13 35 3 30 -25 -4 -20 -10 -24 -35 -21 -23 3 -29 1
-24 -11 7 -20 -3 -45 -19 -45 -8 0 -28 13 -45 29 -29 26 -31 31 -20 52 25 47
29 49 64 30 23 -13 38 -16 49 -9z m-113 -154 c0 -42 -16 -50 -43 -20 -10 11
-14 27 -11 42 12 53 13 54 34 35 13 -12 20 -31 20 -57z m213 30 c24 -18 12
-60 -16 -56 -29 4 -44 32 -28 52 16 19 22 20 44 4z m-91 -273 c9 -36 -2 -50
-35 -41 -18 4 -26 14 -30 38 -6 43 -2 48 30 39 18 -5 29 -16 35 -36z m-112
-59 c0 -7 -7 -19 -15 -26 -19 -16 -41 1 -32 24 8 20 47 21 47 2z m-125 -186
c22 -8 24 -13 15 -29 -18 -35 -13 -52 16 -49 36 4 52 -22 36 -56 -16 -35 -29
-33 -46 9 -17 39 -30 43 -58 19 -19 -18 -20 -17 -32 37 -4 18 1 35 15 53 24
30 20 29 54 16z m280 -19 c6 -11 -33 -26 -43 -16 -4 3 0 10 8 15 19 12 27 12
35 1z m-215 -21 c0 -5 -4 -10 -10 -10 -5 0 -10 5 -10 10 0 6 5 10 10 10 6 0
10 -4 10 -10z m120 -32 c-8 -57 -27 -90 -48 -86 -37 7 -26 85 15 110 40 23 41
23 33 -24z m-222 -328 c27 -36 27 -35 -3 -36 -14 -1 -37 -5 -51 -8 -25 -7 -25
-5 -19 26 4 18 9 36 12 41 10 16 41 5 61 -23z"/>
<path d="M2065 3181 c-3 -5 -1 -12 5 -16 5 -3 10 1 10 9 0 18 -6 21 -15 7z"/>
<path d="M596 3141 c-4 -7 -5 -15 -2 -18 9 -9 19 4 14 18 -4 11 -6 11 -12 0z"/>
<path d="M1560 3070 c0 -5 7 -7 15 -4 8 4 15 8 15 10 0 2 -7 4 -15 4 -8 0 -15
-4 -15 -10z"/>
<path d="M3792 2891 c2 -7 7 -12 11 -12 12 1 9 15 -3 20 -7 2 -11 -2 -8 -8z"/>
<path d="M3812 2813 c15 -15 31 -24 34 -20 10 10 -26 47 -45 47 -11 0 -8 -7
11 -27z"/>
<path d="M3950 2749 c0 -5 9 -9 20 -9 11 0 20 2 20 4 0 2 -9 6 -20 9 -11 3
-20 1 -20 -4z"/>
<path d="M3900 2720 c0 -5 5 -10 10 -10 6 0 10 5 10 10 0 6 -4 10 -10 10 -5 0
-10 -4 -10 -10z"/>
<path d="M4178 2723 c7 -3 16 -2 19 1 4 3 -2 6 -13 5 -11 0 -14 -3 -6 -6z"/>
<path d="M935 2690 c-10 -11 -26 -20 -36 -20 -18 0 -22 -9 -34 -67 -4 -18 -11
-33 -16 -33 -5 0 -9 -18 -9 -40 0 -22 5 -40 10 -40 6 0 10 -11 10 -25 0 -19 5
-25 18 -23 13 2 18 -6 22 -37 16 -127 128 -198 196 -126 15 17 31 28 36 25 4
-3 8 2 8 10 0 9 6 16 14 16 8 0 13 8 12 18 0 9 5 16 12 14 8 -1 11 2 7 8 -3 6
7 34 24 63 31 54 75 84 111 74 11 -3 18 0 17 7 -1 6 5 10 14 8 20 -3 34 27 19
42 -8 8 -13 7 -18 -2 -6 -9 -18 -9 -53 2 -24 8 -38 14 -31 15 6 1 12 5 12 10
0 16 -55 19 -87 4 -23 -11 -37 -12 -51 -4 -10 5 -48 13 -83 17 -57 5 -67 4
-92 -16 -16 -13 -33 -32 -37 -44 -8 -19 -9 -18 -7 7 1 15 5 27 10 27 5 0 6 8
3 18 -3 10 3 35 14 57 22 44 13 66 -15 35z"/>
<path d="M3855 2680 c10 -11 20 -18 23 -15 7 6 -18 35 -31 35 -5 0 -2 -9 8
-20z"/>
<path d="M3769 2670 c24 -21 41 -26 41 -12 0 4 -15 13 -32 19 l-33 12 24 -19z"/>
<path d="M3095 2670 c3 -5 11 -10 16 -10 6 0 7 5 4 10 -3 6 -11 10 -16 10 -6
0 -7 -4 -4 -10z"/>
<path d="M1245 2650 c3 -5 10 -10 16 -10 5 0 9 5 9 10 0 6 -7 10 -16 10 -8 0
-12 -4 -9 -10z"/>
<path d="M126 2634 c-4 -10 -1 -14 6 -12 15 5 23 28 10 28 -5 0 -13 -7 -16
-16z"/>
<path d="M1185 2630 c-4 -6 5 -10 20 -10 15 0 24 4 20 10 -3 6 -12 10 -20 10
-8 0 -17 -4 -20 -10z"/>
<path d="M3780 2626 c0 -20 19 -31 32 -18 7 7 3 14 -11 21 -17 10 -21 9 -21
-3z"/>
<path d="M1845 2620 c-4 -6 -21 -17 -38 -24 -18 -8 -25 -15 -16 -15 21 -1 86
26 94 39 3 5 -3 10 -14 10 -11 0 -23 -5 -26 -10z"/>
<path d="M1491 2576 c-19 -23 31 -33 61 -12 22 16 22 16 1 16 -12 0 -28 2 -36
5 -7 3 -19 -1 -26 -9z"/>
<path d="M1708 2578 c9 -9 15 -9 24 0 9 9 7 12 -12 12 -19 0 -21 -3 -12 -12z"/>
<path d="M3886 2565 c10 -8 23 -15 28 -15 6 0 1 7 -10 15 -10 8 -23 15 -28 15
-6 0 -1 -7 10 -15z"/>
<path d="M1615 2560 c-3 -5 -22 -10 -41 -10 -21 0 -33 -4 -29 -10 15 -24 105
-3 105 24 0 10 -28 7 -35 -4z"/>
<path d="M651 2544 c0 -11 3 -14 6 -6 3 7 2 16 -1 19 -3 4 -6 -2 -5 -13z"/>
<path d="M1412 2549 c6 -4 16 -5 20 -2 5 2 14 0 21 -5 19 -15 65 -23 72 -12 4
6 -6 10 -24 10 -17 0 -31 4 -31 10 0 5 -16 9 -35 8 -22 -1 -31 -4 -23 -9z"/>
<path d="M1405 2520 c-3 -5 1 -10 9 -10 9 0 16 5 16 10 0 6 -4 10 -9 10 -6 0
-13 -4 -16 -10z"/>
<path d="M3001 2522 c-1 -8 8 -16 19 -19 11 -3 20 -11 20 -19 0 -7 6 -17 13
-21 7 -4 24 -26 37 -48 25 -42 79 -105 91 -105 17 0 -6 43 -34 63 -16 12 -47
48 -69 80 -21 31 -45 57 -53 57 -7 0 -16 6 -18 13 -4 9 -6 9 -6 -1z"/>
<path d="M1500 2509 c-26 -4 -35 -7 -20 -8 14 -2 44 -5 67 -7 23 -3 44 -1 47
4 8 13 -39 18 -94 11z"/>
<path d="M3216 2507 c3 -10 9 -15 12 -12 3 3 0 11 -7 18 -10 9 -11 8 -5 -6z"/>
<path d="M1668 2503 c6 -2 18 -2 25 0 6 3 1 5 -13 5 -14 0 -19 -2 -12 -5z"/>
<path d="M2960 2491 c0 -5 5 -13 10 -16 6 -3 10 -2 10 4 0 5 -4 13 -10 16 -5
3 -10 2 -10 -4z"/>
<path d="M3110 2480 c0 -5 4 -10 9 -10 5 0 23 -22 40 -48 32 -50 81 -102 81
-86 0 5 -10 20 -21 34 -11 14 -31 42 -44 62 -25 38 -65 68 -65 48z"/>
<path d="M3930 2475 c0 -9 6 -12 15 -9 8 4 12 10 9 15 -8 14 -24 10 -24 -6z"/>
<path d="M4270 2476 c0 -2 7 -7 16 -10 8 -3 12 -2 9 4 -6 10 -25 14 -25 6z"/>
<path d="M3390 2450 c0 -5 5 -10 11 -10 5 0 7 5 4 10 -3 6 -8 10 -11 10 -2 0
-4 -4 -4 -10z"/>
<path d="M4030 2450 c0 -5 7 -10 15 -10 8 0 15 5 15 10 0 6 -7 10 -15 10 -8 0
-15 -4 -15 -10z"/>
<path d="M810 2434 c0 -8 5 -12 10 -9 6 4 8 11 5 16 -9 14 -15 11 -15 -7z"/>
<path d="M3965 2440 c3 -5 8 -10 11 -10 2 0 4 5 4 10 0 6 -5 10 -11 10 -5 0
-7 -4 -4 -10z"/>
<path d="M4281 2434 c0 -11 3 -14 6 -6 3 7 2 16 -1 19 -3 4 -6 -2 -5 -13z"/>
<path d="M2787 2411 c34 -33 45 -39 37 -18 -2 7 -19 21 -37 31 l-32 18 32 -31z"/>
<path d="M3420 2436 c0 -2 7 -9 15 -16 9 -7 15 -8 15 -2 0 5 -7 12 -15 16 -8
3 -15 4 -15 2z"/>
<path d="M3940 2426 c0 -13 29 -26 60 -26 18 0 3 13 -32 28 -23 9 -28 9 -28
-2z"/>
<path d="M2105 2420 c-4 -7 3 -8 22 -4 38 9 42 14 10 14 -14 0 -29 -5 -32 -10z"/>
<path d="M2980 2426 c0 -2 8 -10 18 -17 15 -13 16 -12 3 4 -13 16 -21 21 -21
13z"/>
<path d="M3460 2397 c0 -14 20 -37 31 -37 4 0 5 9 2 19 -6 22 -33 37 -33 18z"/>
<path d="M3235 2390 c3 -5 8 -10 11 -10 2 0 4 5 4 10 0 6 -5 10 -11 10 -5 0
-7 -4 -4 -10z"/>
<path d="M3325 2380 c10 -11 20 -20 23 -20 3 0 -3 9 -13 20 -10 11 -20 20 -23
20 -3 0 3 -9 13 -20z"/>
<path d="M3411 2395 c0 -13 28 -50 33 -44 3 2 -4 15 -14 29 -11 14 -20 21 -19
15z"/>
<path d="M2610 2376 c0 -2 8 -10 18 -17 15 -13 16 -12 3 4 -13 16 -21 21 -21
13z"/>
<path d="M3010 2368 c0 -10 4 -18 9 -18 5 0 12 -8 15 -17 11 -31 38 -75 42
-70 6 5 -12 54 -26 70 -6 6 -17 21 -25 32 -13 18 -14 18 -15 3z"/>
<path d="M3275 2370 c-4 -6 3 -10 14 -10 25 0 27 6 6 13 -8 4 -17 2 -20 -3z"/>
<path d="M2850 2361 c0 -13 39 -45 47 -38 3 4 1 7 -5 7 -7 0 -12 6 -12 14 0 8
-7 16 -15 20 -8 3 -15 2 -15 -3z"/>
<path d="M1438 2353 c7 -3 16 -2 19 1 4 3 -2 6 -13 5 -11 0 -14 -3 -6 -6z"/>
<path d="M1688 2353 c7 -3 16 -2 19 1 4 3 -2 6 -13 5 -11 0 -14 -3 -6 -6z"/>
<path d="M1560 2335 c0 -9 6 -12 15 -9 8 4 12 10 9 15 -8 14 -24 10 -24 -6z"/>
<path d="M1828 2343 c7 -3 16 -2 19 1 4 3 -2 6 -13 5 -11 0 -14 -3 -6 -6z"/>
<path d="M2005 2340 c-4 -6 17 -10 54 -10 34 0 61 4 61 10 0 6 -24 10 -54 10
-30 0 -58 -4 -61 -10z"/>
<path d="M3458 2320 c5 -13 19 -31 32 -39 22 -15 23 -15 12 4 -5 11 -20 29
-31 40 -22 19 -22 19 -13 -5z"/>
<path d="M1480 2315 c-14 -8 -39 -14 -57 -15 -17 0 -35 -4 -38 -10 -4 -6 5 -8
22 -5 15 2 44 7 64 10 37 5 77 35 48 35 -8 -1 -25 -7 -39 -15z"/>
<path d="M2940 2326 c0 -2 8 -10 18 -17 15 -13 16 -12 3 4 -13 16 -21 21 -21
13z"/>
<path d="M3326 2317 c3 -10 9 -15 12 -12 3 3 0 11 -7 18 -10 9 -11 8 -5 -6z"/>
<path d="M3572 2319 c2 -7 10 -15 17 -17 8 -3 12 1 9 9 -2 7 -10 15 -17 17 -8
3 -12 -1 -9 -9z"/>
<path d="M2690 2311 c0 -5 5 -13 10 -16 6 -3 10 -2 10 4 0 5 -4 13 -10 16 -5
3 -10 2 -10 -4z"/>
<path d="M2780 2315 c0 -2 19 -14 43 -26 l42 -21 -30 26 c-27 23 -55 34 -55
21z"/>
<path d="M2995 2300 c10 -11 22 -20 27 -20 4 0 3 9 -4 20 -7 11 -19 20 -27 20
-11 0 -10 -5 4 -20z"/>
<path d="M1775 2300 c-3 -5 1 -10 10 -10 9 0 13 5 10 10 -3 6 -8 10 -10 10 -2
0 -7 -4 -10 -10z"/>
<path d="M2907 2299 c7 -7 15 -10 18 -7 3 3 -2 9 -12 12 -14 6 -15 5 -6 -5z"/>
<path d="M1510 2291 c-34 -9 -5 -21 34 -14 20 4 24 8 14 14 -15 10 -13 10 -48
0z"/>
<path d="M3352 2295 c7 -22 43 -75 51 -75 15 0 6 21 -24 52 -17 18 -29 29 -27
23z"/>
<path d="M1658 2283 c7 -3 16 -2 19 1 4 3 -2 6 -13 5 -11 0 -14 -3 -6 -6z"/>
<path d="M3235 2250 c16 -16 31 -28 33 -25 7 7 -39 55 -52 55 -5 0 3 -13 19
-30z"/>
<path d="M1843 2253 c9 -2 23 -2 30 0 6 3 -1 5 -18 5 -16 0 -22 -2 -12 -5z"/>
<path d="M2700 2256 c0 -2 7 -6 15 -10 8 -3 15 -1 15 4 0 6 -7 10 -15 10 -8 0
-15 -2 -15 -4z"/>
<path d="M2745 2240 c-3 -5 -2 -10 3 -10 5 0 17 -16 26 -35 18 -37 41 -39 30
-2 -7 25 -33 57 -45 57 -4 0 -11 -4 -14 -10z"/>
<path d="M1898 2223 c7 -3 16 -2 19 1 4 3 -2 6 -13 5 -11 0 -14 -3 -6 -6z"/>
<path d="M2265 2220 c-3 -5 1 -10 9 -10 8 0 18 5 21 10 3 6 -1 10 -9 10 -8 0
-18 -4 -21 -10z"/>
<path d="M2585 2221 c-4 -7 5 -11 24 -11 16 0 32 -6 34 -12 3 -8 6 -6 6 5 1 9
-5 17 -13 17 -8 0 -21 3 -29 6 -8 3 -18 1 -22 -5z"/>
<path d="M1630 2200 c0 -5 7 -10 15 -10 8 0 15 5 15 10 0 6 -7 10 -15 10 -8 0
-15 -4 -15 -10z"/>
<path d="M2088 2203 c7 -3 16 -2 19 1 4 3 -2 6 -13 5 -11 0 -14 -3 -6 -6z"/>
<path d="M1224 2188 c-3 -4 13 -8 35 -8 23 0 41 4 41 9 0 11 -69 10 -76 -1z"/>
<path d="M1320 2186 c0 -14 -49 -26 -104 -26 -16 0 -26 -3 -22 -7 4 -5 18 -8
29 -8 15 0 22 -6 21 -17 -1 -10 4 -18 12 -18 25 0 15 -20 -18 -34 -26 -11 -28
-15 -12 -15 11 -1 24 2 28 7 4 4 20 7 34 8 15 1 57 5 95 9 44 5 67 4 67 -2 0
-12 -33 -23 -70 -23 -16 0 -21 -3 -12 -8 7 -5 57 -9 112 -10 78 -2 100 1 100
11 0 9 -9 12 -29 9 -16 -2 -37 1 -48 7 -10 6 -12 11 -5 11 22 0 13 20 -10 21
-16 0 -18 2 -8 6 8 3 18 11 22 17 5 8 8 7 8 -1 0 -7 6 -13 14 -13 7 0 19 -7
27 -16 11 -13 14 -13 21 -1 4 9 31 18 60 22 29 4 60 13 69 19 13 9 2 11 -50
13 -47 1 -71 -3 -84 -15 -9 -8 -20 -12 -24 -8 -5 4 0 12 10 18 18 10 18 10 0
23 -10 7 -33 16 -50 20 -28 5 -32 4 -27 -9 5 -12 2 -15 -10 -10 -10 4 -34 -1
-55 -11 -21 -9 -47 -15 -57 -12 -13 3 -9 5 10 6 29 1 29 1 10 19 -27 26 -54
34 -54 18z m217 -32 c-3 -3 -12 -4 -19 -1 -8 3 -5 6 6 6 11 1 17 -2 13 -5z
m-64 -11 c-7 -2 -19 -2 -25 0 -7 3 -2 5 12 5 14 0 19 -2 13 -5z m-143 -33 c0
-5 -9 -14 -20 -20 -16 -8 -20 -8 -20 4 0 13 13 23 33 25 4 1 7 -3 7 -9z"/>
<path d="M1390 2190 c0 -5 4 -10 9 -10 6 0 13 5 16 10 3 6 -1 10 -9 10 -9 0
-16 -4 -16 -10z"/>
<path d="M2493 2190 c-32 -13 -29 -19 10 -17 17 0 57 -3 87 -8 30 -4 52 -4 48
0 -4 4 -24 9 -45 12 -21 3 -46 9 -55 14 -19 10 -16 10 -45 -1z"/>
<path d="M1875 2181 l-60 -7 55 -7 c65 -9 113 -4 118 12 4 12 -11 12 -113 2z"/>
<path d="M2310 2180 c-10 -6 -11 -10 -2 -10 6 0 12 -6 12 -14 0 -8 15 -20 34
-26 19 -6 36 -16 38 -22 3 -7 10 -8 17 -4 14 9 -8 29 -44 39 -11 4 -3 5 17 2
25 -2 38 1 42 10 3 8 2 16 -2 18 -18 11 -99 16 -112 7z"/>
<path d="M1598 2173 c7 -3 16 -2 19 1 4 3 -2 6 -13 5 -11 0 -14 -3 -6 -6z"/>
<path d="M2658 2173 c7 -3 16 -2 19 1 4 3 -2 6 -13 5 -11 0 -14 -3 -6 -6z"/>
<path d="M1750 2160 c-13 -8 -13 -10 2 -10 9 0 20 5 23 10 8 13 -5 13 -25 0z"/>
<path d="M2270 2160 c0 -5 5 -10 10 -10 6 0 10 5 10 10 0 6 -4 10 -10 10 -5 0
-10 -4 -10 -10z"/>
<path d="M1797 2149 c7 -7 15 -10 18 -7 3 3 -2 9 -12 12 -14 6 -15 5 -6 -5z"/>
<path d="M2105 2150 c3 -5 10 -10 16 -10 5 0 9 5 9 10 0 6 -7 10 -16 10 -8 0
-12 -4 -9 -10z"/>
<path d="M1954 2136 c-3 -9 -17 -16 -29 -16 -13 0 -26 -4 -30 -10 -3 -5 -13
-6 -22 -3 -11 4 -14 2 -11 -8 5 -15 93 -14 136 2 13 5 46 9 75 9 47 0 49 1 31
15 -23 17 -66 19 -81 4 -8 -8 -18 -6 -37 6 -23 16 -26 16 -32 1z m31 -16 c3
-5 -1 -10 -10 -10 -9 0 -13 5 -10 10 3 6 8 10 10 10 2 0 7 -4 10 -10z"/>
<path d="M1732 2121 c-10 -6 -5 -10 17 -14 17 -4 31 -11 31 -17 0 -14 -22 -13
-60 4 -33 14 -70 11 -70 -5 0 -5 18 -9 41 -9 27 0 38 -4 33 -11 -4 -8 -26 -9
-65 -5 -46 6 -59 4 -59 -6 0 -10 18 -15 65 -16 53 -2 67 0 72 14 5 14 15 15
60 10 42 -5 53 -3 53 8 0 12 -26 26 -95 52 -5 2 -16 0 -23 -5z"/>
<path d="M2305 2105 c-5 -2 -23 -6 -39 -10 -15 -3 -26 -9 -22 -12 3 -3 0 -13
-7 -21 -10 -13 -8 -14 18 -7 17 4 42 9 56 10 39 4 69 15 69 26 0 5 -9 9 -19 9
-11 0 -25 2 -33 4 -7 3 -17 3 -23 1z"/>
<path d="M2445 2099 c-4 -6 -5 -13 -2 -16 7 -7 27 6 27 18 0 12 -17 12 -25 -2z"/>
<path d="M1620 2090 c0 -5 5 -10 11 -10 5 0 7 5 4 10 -3 6 -8 10 -11 10 -2 0
-4 -4 -4 -10z"/>
<path d="M1984 2073 c4 -5 11 -8 14 -9 4 0 19 -6 34 -12 27 -11 58 -7 58 8 0
4 -17 10 -37 14 -51 8 -78 8 -69 -1z"/>
<path d="M2354 2049 c-3 -5 6 -9 20 -9 31 0 34 6 6 13 -11 3 -23 1 -26 -4z"/>
<path d="M1898 2043 c-16 -4 -16 -6 -4 -19 19 -18 47 -18 72 1 19 14 19 14 -3
15 -12 0 -27 2 -35 4 -7 2 -21 2 -30 -1z"/>
<path d="M1755 2020 c-4 -6 5 -10 20 -10 20 0 26 -4 21 -15 -4 -10 1 -15 15
-15 13 0 19 6 17 18 -5 27 -60 44 -73 22z"/>
<path d="M735 2000 c-3 -5 -1 -10 4 -10 6 0 11 5 11 10 0 6 -2 10 -4 10 -3 0
-8 -4 -11 -10z"/>
<path d="M1968 1963 c7 -3 16 -2 19 1 4 3 -2 6 -13 5 -11 0 -14 -3 -6 -6z"/>
<path d="M1903 1949 c-6 -6 -41 -12 -77 -12 -50 -1 -66 -4 -66 -15 0 -12 13
-13 73 -6 39 4 86 9 102 9 75 4 74 6 -20 35 -1 0 -6 -5 -12 -11z"/>
<path d="M528 1834 c-11 -10 3 -34 19 -34 8 0 13 7 11 17 -3 18 -20 27 -30 17z"/>
<path d="M1330 1830 c0 -5 5 -10 10 -10 6 0 10 5 10 10 0 6 -4 10 -10 10 -5 0
-10 -4 -10 -10z"/>
<path d="M760 1820 c20 -13 33 -13 25 0 -3 6 -14 10 -23 10 -15 0 -15 -2 -2
-10z"/>
<path d="M840 1820 c19 -13 30 -13 30 0 0 6 -10 10 -22 10 -19 0 -20 -2 -8
-10z"/>
<path d="M1500 1810 c0 -11 48 -25 57 -16 4 3 -1 6 -10 6 -9 0 -17 5 -17 10 0
6 -7 10 -15 10 -8 0 -15 -4 -15 -10z"/>
<path d="M1100 1800 c0 -5 12 -10 28 -10 21 0 24 2 12 10 -20 13 -40 13 -40 0z"/>
<path d="M1290 1800 c0 -5 7 -10 16 -10 8 0 12 5 9 10 -3 6 -10 10 -16 10 -5
0 -9 -4 -9 -10z"/>
<path d="M1355 1800 c-3 -5 3 -10 14 -10 12 0 21 5 21 10 0 6 -6 10 -14 10 -8
0 -18 -4 -21 -10z"/>
<path d="M1467 1765 c-5 -11 0 -15 16 -15 12 0 18 4 12 8 -5 4 -13 11 -16 15
-4 4 -9 1 -12 -8z"/>
<path d="M552 1747 c-25 -27 -20 -37 18 -37 24 0 26 3 22 30 -5 36 -12 37 -40
7z"/>
<path d="M1010 1766 c0 -2 7 -7 16 -10 8 -3 12 -2 9 4 -6 10 -25 14 -25 6z"/>
<path d="M770 1720 c0 -5 5 -10 10 -10 6 0 10 -7 10 -15 0 -12 4 -14 16 -7 9
5 25 7 35 5 11 -3 19 0 19 6 0 6 -13 11 -29 11 -17 0 -33 5 -36 10 -3 6 -10
10 -16 10 -5 0 -9 -4 -9 -10z"/>
<path d="M883 1722 c9 -2 17 -8 17 -13 0 -13 19 -11 34 4 10 10 5 13 -28 13
-23 0 -33 -1 -23 -4z"/>
<path d="M1195 1700 c-4 -6 5 -10 20 -10 15 0 24 4 20 10 -3 6 -12 10 -20 10
-8 0 -17 -4 -20 -10z"/>
<path d="M545 1680 c4 -6 11 -8 16 -5 14 9 11 15 -7 15 -8 0 -12 -5 -9 -10z"/>
<path d="M1038 1674 c24 -17 39 -14 27 5 -3 6 -16 11 -28 11 l-21 0 22 -16z"/>
<path d="M1113 1674 c15 -8 32 -12 38 -8 16 9 -10 24 -41 23 l-25 0 28 -15z"/>
<path d="M1165 1640 c3 -5 13 -10 21 -10 8 0 14 5 14 10 0 6 -9 10 -21 10 -11
0 -17 -4 -14 -10z"/>
<path d="M510 1200 c0 -11 5 -20 10 -20 6 0 10 9 10 20 0 11 -4 20 -10 20 -5
0 -10 -9 -10 -20z"/>
<path d="M505 1161 c-3 -5 -1 -12 5 -16 5 -3 10 1 10 9 0 18 -6 21 -15 7z"/>
<path d="M500 1094 c0 -17 22 -14 28 4 2 7 -3 12 -12 12 -9 0 -16 -7 -16 -16z"/>
<path d="M456 1083 c-22 -75 -17 -125 9 -103 8 7 24 9 36 5 18 -6 21 -4 16 10
-4 9 -7 23 -7 31 0 21 -18 17 -25 -6 -13 -41 -27 -20 -20 30 7 49 2 68 -9 33z"/>
<path d="M445 850 c-3 -5 -1 -10 4 -10 6 0 11 5 11 10 0 6 -2 10 -4 10 -3 0
-8 -4 -11 -10z"/>
</g>
</svg>
